<?xml version="1.0" standalone="no"?>
<!DOCTYPE svg PUBLIC "-//W3C//DTD SVG 20010904//EN"
 "http://www.w3.org/TR/2001/REC-SVG-20010904/DTD/svg10.dtd">
<svg version="1.0" xmlns="http://www.w3.org/2000/svg"
 width="1000.000000pt" height="1000.000000pt" viewBox="0 0 1000.000000 1000.000000"
 preserveAspectRatio="xMidYMid meet">
<metadata>
Created by potrace 1.14, written by Peter Selinger 2001-2017
</metadata>
<g transform="translate(0.000000,1000.000000) scale(0.100000,-0.100000)"
fill="#000000" stroke="none">
<path d="M7961 9164 c0 -11 3 -14 6 -6 3 7 2 16 -1 19 -3 4 -6 -2 -5 -13z"/>
<path d="M7614 8988 c-5 -7 -18 -13 -28 -13 -11 0 -21 -6 -24 -14 -3 -8 0 -11
7 -7 6 4 16 4 22 0 19 -12 -53 -32 -75 -21 -20 10 -35 -4 -37 -33 0 -8 -5 -4
-9 10 -8 25 -8 25 -9 2 -1 -16 -5 -21 -13 -16 -7 4 -3 -3 10 -15 27 -27 27
-31 2 -31 -11 0 -20 7 -20 16 0 8 -4 12 -10 9 -6 -4 -7 1 -3 12 6 16 4 16 -18
-2 -13 -11 -33 -31 -45 -44 -18 -21 -22 -22 -35 -9 -13 14 -18 12 -44 -14 -25
-24 -31 -27 -33 -13 -5 20 -50 13 -69 -12 -7 -8 -29 -16 -52 -16 -22 -1 -43
-8 -46 -14 -2 -7 -12 -13 -20 -13 -9 0 -30 -13 -48 -30 -18 -16 -38 -30 -45
-30 -7 0 -11 -4 -8 -8 3 -5 -1 -9 -9 -9 -8 0 -15 7 -16 16 0 14 -1 14 -7 1 -4
-8 -13 -15 -19 -15 -7 0 -12 -4 -10 -8 3 -12 -44 -36 -59 -30 -7 2 -15 0 -18
-5 -3 -6 2 -13 11 -16 14 -6 14 -9 4 -15 -10 -6 -9 -11 3 -24 9 -8 21 -17 27
-19 7 -2 9 -12 5 -25 -4 -14 -12 -20 -22 -16 -7 3 -14 0 -14 -7 0 -6 5 -8 10
-5 6 3 10 0 10 -7 0 -10 2 -10 9 1 6 8 11 9 15 3 4 -7 18 -6 41 4 21 8 35 10
35 4 0 -5 9 -2 20 8 12 9 25 17 30 17 6 0 10 3 10 8 -1 15 25 34 39 29 10 -4
12 -1 6 7 -5 10 -2 11 13 7 12 -4 30 -2 41 3 16 9 20 7 25 -15 6 -22 11 -25
33 -19 22 5 25 3 20 -14 -3 -12 0 -21 6 -21 35 1 48 50 13 51 -11 0 -15 3 -8
6 6 2 12 13 12 23 0 10 7 21 16 24 11 4 14 13 11 28 -7 26 9 49 29 41 11 -4
12 -9 3 -19 -8 -10 -8 -14 0 -14 6 0 11 -7 11 -15 0 -8 -5 -15 -11 -15 -5 0
-7 -4 -4 -10 9 -15 25 -12 25 6 0 8 4 13 9 10 5 -3 6 -16 3 -29 -5 -21 -5 -21
12 -4 10 9 22 17 27 17 6 0 8 4 5 9 -4 5 4 7 16 3 21 -5 21 -6 2 -13 -10 -4
-14 -8 -9 -9 6 0 1 -8 -10 -17 l-20 -16 20 8 c11 4 28 8 37 9 9 0 14 5 11 10
-4 5 1 7 10 3 17 -6 24 7 10 16 -5 2 -2 2 6 0 7 -2 20 5 27 14 18 24 17 36 -1
29 -8 -3 -15 -1 -15 5 0 6 -7 8 -17 5 -16 -6 -16 -6 0 12 9 10 14 22 10 27 -5
4 -3 5 4 1 7 -4 9 -14 6 -23 -5 -13 -2 -15 11 -10 10 4 22 7 27 7 5 0 9 6 9
14 0 8 6 17 13 19 9 4 8 8 -3 16 -10 7 -11 11 -2 11 6 0 11 3 11 8 -1 4 0 10
1 15 1 4 3 13 4 20 1 7 11 10 26 8 52 -8 55 -7 52 17 -2 12 1 21 6 20 14 -4
14 3 2 37 -12 35 -13 45 -2 44 4 -1 6 -4 5 -8 -1 -4 5 -8 13 -8 10 0 11 4 5
10 -7 7 -7 16 0 29 5 10 6 18 2 18 -4 0 -1 5 7 10 11 7 12 12 3 21 -8 8 -13 8
-19 -3z m-66 -127 c-11 -18 -38 -25 -38 -9 0 4 7 8 15 8 8 0 14 3 14 8 -3 16
1 23 11 17 6 -4 6 -12 -2 -24z m-148 -5 c0 -3 -4 -8 -10 -11 -5 -3 -10 -1 -10
4 0 6 5 11 10 11 6 0 10 -2 10 -4z m80 -61 c0 -19 -5 -25 -22 -25 -20 0 -20 1
-5 18 10 10 14 22 10 25 -3 4 -1 7 5 7 7 0 12 -11 12 -25z m-50 -36 c0 -5 4
-7 10 -4 6 3 7 -1 4 -9 -3 -9 -10 -13 -15 -10 -5 2 -18 0 -30 -7 -15 -8 -19
-8 -15 0 4 6 0 11 -8 11 -10 0 -13 6 -10 15 7 17 64 21 64 4z m-26 -95 c3 -8
2 -12 -4 -9 -6 3 -10 10 -10 16 0 14 7 11 14 -7z m-194 -24 c0 -5 -7 -7 -15
-4 -8 4 -15 8 -15 10 0 2 7 4 15 4 8 0 15 -4 15 -10z m-273 -32 c-3 -8 -6 -5
-6 6 -1 11 2 17 5 13 3 -3 4 -12 1 -19z m255 -9 c-10 -12 -18 -15 -21 -8 -2 8
-6 7 -12 -2 -6 -10 -8 -7 -6 9 1 14 6 21 14 18 7 -3 13 -1 13 4 0 5 6 7 14 4
12 -5 12 -9 -2 -25z"/>
<path d="M7740 8990 c0 -5 5 -10 10 -10 6 0 10 5 10 10 0 6 -4 10 -10 10 -5 0
-10 -4 -10 -10z"/>
<path d="M7680 8980 c0 -6 7 -10 15 -10 8 0 15 2 15 4 0 2 -7 6 -15 10 -8 3
-15 1 -15 -4z"/>
<path d="M7657 8948 c4 -7 8 -16 8 -20 0 -3 2 -8 5 -10 3 -1 4 -1 3 1 -1 2 2
12 8 22 8 16 6 19 -11 19 -15 0 -19 -4 -13 -12z"/>
<path d="M7532 8777 c-13 -16 -5 -54 13 -61 13 -5 15 18 2 30 -12 12 -8 36 5
28 7 -4 8 -3 4 4 -9 15 -11 15 -24 -1z"/>
<path d="M7620 8776 c0 -9 5 -16 10 -16 6 0 10 4 10 9 0 6 -4 13 -10 16 -5 3
-10 -1 -10 -9z"/>
<path d="M7513 8693 c9 -9 19 -14 23 -11 10 10 -6 28 -24 28 -15 0 -15 -1 1
-17z"/>
<path d="M7500 8670 c0 -5 5 -10 10 -10 6 0 10 5 10 10 0 6 -4 10 -10 10 -5 0
-10 -4 -10 -10z"/>
<path d="M7301 8561 c-25 -7 -42 -31 -21 -31 6 0 9 4 6 8 -4 7 12 11 57 13 9
0 17 4 17 10 0 10 -23 10 -59 0z"/>
<path d="M6770 8548 c0 -4 7 -8 15 -8 8 0 15 4 15 8 0 5 -7 9 -15 9 -8 0 -15
-4 -15 -9z"/>
<path d="M7300 8520 c0 -6 7 -10 15 -10 8 0 15 2 15 4 0 2 -7 6 -15 10 -8 3
-15 1 -15 -4z"/>
<path d="M4660 8514 c0 -17 33 -35 54 -30 15 4 28 0 36 -10 8 -8 23 -14 35
-12 26 3 55 -18 55 -39 0 -13 3 -13 15 -3 13 11 13 14 0 27 -17 17 -20 27 -5
18 6 -3 10 -2 10 2 0 5 13 9 29 8 16 0 27 -3 24 -8 -2 -4 3 -10 11 -13 9 -3
16 -11 16 -16 0 -6 -7 -8 -15 -4 -8 3 -15 2 -15 -3 0 -5 11 -11 25 -13 21 -5
25 -2 20 13 -8 24 21 37 46 20 15 -9 19 -8 19 1 0 10 3 9 9 -1 7 -11 9 -11 14
0 4 10 6 9 6 -3 1 -20 9 -22 30 -9 7 5 11 13 7 19 -3 6 2 15 11 21 10 6 16 11
13 11 -3 1 -24 4 -46 6 -33 4 -43 1 -48 -13 -7 -17 -8 -17 -21 1 -10 13 -29
19 -72 20 -33 2 -61 -2 -65 -8 -5 -7 -8 -5 -8 4 0 13 -17 16 -95 17 -52 1 -95
-1 -95 -3z"/>
<path d="M7174 8495 c11 -8 22 -12 25 -9 6 6 -19 24 -34 24 -5 -1 -1 -7 9 -15z"/>
<path d="M4635 8480 c-4 -6 3 -10 14 -10 25 0 27 6 6 13 -8 4 -17 2 -20 -3z"/>
<path d="M5123 8476 c3 -8 1 -16 -5 -18 -13 -5 -19 -48 -6 -48 4 0 8 7 8 15 0
8 5 15 10 15 6 0 10 -9 10 -19 0 -13 9 -21 30 -26 16 -4 32 -5 36 -3 3 2 12
-8 19 -22 13 -23 14 -23 15 -4 0 28 10 36 27 22 11 -9 17 -9 24 3 7 10 8 5 4
-18 -4 -18 -2 -34 4 -38 7 -4 11 5 11 24 0 29 21 44 33 24 2 -5 2 -2 1 5 -2 6
-1 12 2 12 10 0 49 -23 55 -32 3 -5 18 -4 34 2 33 12 39 9 30 -19 -6 -21 -19
-21 -68 -2 -39 15 -40 14 -23 -11 9 -12 15 -34 15 -48 -1 -17 -3 -19 -6 -7 -3
10 -9 14 -16 10 -16 -10 -37 -13 -36 -5 1 4 1 14 0 22 -1 12 -3 12 -12 -2 -6
-11 -16 -15 -26 -11 -12 5 -15 2 -10 -10 5 -12 1 -17 -13 -17 -12 0 -20 7 -21
18 0 11 -2 12 -6 4 -4 -10 -8 -10 -19 -1 -11 9 -18 9 -29 -1 -12 -10 -15 -10
-15 0 0 10 -3 10 -15 0 -13 -10 -19 -10 -33 3 -11 10 -31 15 -55 12 -21 -1
-43 2 -50 8 -21 21 -86 14 -115 -12 -16 -14 -42 -25 -64 -26 -31 -3 -37 0 -42
20 -4 17 -11 22 -26 18 -28 -7 -26 20 3 40 17 13 19 18 8 25 -18 13 -51 3 -51
-15 0 -11 -4 -13 -12 -5 -7 5 -35 13 -63 17 -27 4 -56 12 -63 17 -9 8 -11 7
-6 -6 3 -9 12 -16 20 -16 16 0 19 -16 4 -25 -5 -3 -10 -1 -10 4 0 6 -6 11 -14
11 -8 0 -22 8 -32 17 -16 16 -15 18 17 30 l34 13 -32 -3 c-18 -2 -34 -1 -35 3
-2 4 -17 3 -35 -2 -23 -6 -31 -13 -27 -23 4 -8 2 -15 -3 -15 -5 0 -14 15 -21
33 -12 29 -14 31 -26 15 -16 -22 -30 -23 -46 -3 -7 9 -20 13 -27 10 -8 -2 -24
0 -36 6 -15 8 -22 9 -25 1 -2 -6 -17 -8 -38 -5 -19 3 -34 2 -34 -3 0 -5 -26
-8 -57 -8 -32 1 -69 -3 -83 -8 -17 -6 -26 -6 -28 2 -3 8 -8 8 -18 -1 -8 -6
-27 -9 -44 -5 -24 4 -30 2 -30 -12 -1 -16 -2 -15 -15 2 -7 10 -18 15 -23 12
-6 -3 -13 0 -16 6 -3 7 -4 0 0 -16 l5 -30 -20 25 -20 24 -1 -27 c0 -18 -5 -28
-15 -28 -17 0 -19 12 -5 26 8 8 6 15 -6 25 -16 12 -17 12 -11 -5 6 -15 4 -17
-13 -13 -11 3 -39 0 -62 -5 -41 -10 -63 -13 -115 -16 -27 -2 -31 -32 -5 -33
11 0 12 -2 4 -6 -10 -4 -10 -8 -1 -19 8 -10 8 -17 -3 -27 -11 -12 -16 -12 -28
1 -12 14 -15 12 -26 -13 l-12 -29 -14 30 c-9 16 -13 36 -10 44 4 12 1 11 -15
-2 -11 -10 -25 -18 -31 -18 -7 0 -12 -4 -12 -10 0 -5 6 -10 13 -10 8 0 7 -4
-3 -10 -12 -8 -13 -12 -2 -19 11 -7 11 -9 -2 -14 -12 -5 -16 0 -16 18 0 14 -5
25 -11 25 -5 0 -7 5 -4 10 3 6 1 10 -4 10 -6 0 -11 -9 -11 -20 0 -11 -4 -20
-10 -20 -5 0 -7 8 -3 18 5 15 4 14 -9 -2 -10 -13 -24 -17 -44 -14 -25 3 -29 1
-29 -19 0 -17 6 -23 22 -23 12 0 24 4 27 9 7 11 66 20 66 10 0 -10 -34 -25
-67 -29 -12 -1 -14 -3 -5 -7 9 -4 10 -8 2 -18 -8 -9 -6 -17 6 -29 9 -9 13 -23
10 -31 -8 -22 -26 -18 -26 4 0 25 -18 37 -33 22 -8 -8 -6 -11 6 -11 9 0 17 -4
17 -10 0 -10 -51 8 -61 22 -7 11 -69 -2 -69 -14 0 -5 -6 -16 -14 -24 -13 -12
-17 -12 -30 2 -9 8 -16 11 -16 6 0 -6 -17 -10 -37 -10 -59 0 -61 -1 -68 -23
-5 -16 -12 -19 -32 -14 -18 4 -23 3 -17 -7 5 -10 4 -11 -7 0 -17 16 -30 15
-23 -2 3 -8 1 -17 -5 -21 -10 -5 -15 7 -12 28 0 4 -3 7 -9 7 -5 0 -10 -13 -10
-30 0 -24 -4 -30 -22 -31 -13 0 -17 -3 -10 -6 21 -8 13 -18 -16 -20 -16 -1
-33 -3 -38 -4 -24 -4 -65 2 -60 10 10 16 -89 -13 -101 -30 -7 -9 -23 -19 -37
-23 -27 -7 -41 -42 -21 -54 22 -12 -9 -45 -45 -46 -16 -1 -30 -5 -30 -9 0 -5
-4 -6 -8 -3 -12 7 -93 -32 -112 -54 -10 -11 -25 -20 -35 -20 -10 0 -15 -3 -12
-7 11 -11 -31 -34 -63 -35 -30 -1 -45 -28 -15 -28 9 0 12 -6 8 -17 -4 -11 -8
-12 -11 -5 -2 7 -8 12 -13 12 -6 0 -7 -4 -4 -10 3 -6 -1 -7 -9 -4 -11 4 -16 0
-16 -13 0 -32 11 -34 47 -6 18 14 36 23 39 20 3 -3 -3 -12 -15 -19 -25 -15
-27 -28 -5 -28 8 0 12 -5 9 -10 -4 -7 -13 -7 -26 0 -13 7 -19 7 -19 0 0 -5 8
-10 18 -10 13 0 14 -2 4 -9 -9 -5 -4 -8 16 -7 17 1 28 4 26 8 -2 3 13 6 33 5
21 0 49 5 63 13 35 19 63 23 55 8 -4 -7 0 -5 8 5 8 9 19 17 26 17 14 0 14 13
-1 28 -9 9 -5 17 15 36 15 14 27 21 27 17 0 -5 9 -11 20 -14 11 -3 20 -1 20 5
0 6 11 7 25 4 23 -6 25 -3 25 24 0 18 4 29 10 25 6 -3 10 -20 10 -36 0 -27 3
-30 22 -23 20 6 21 5 10 -9 -8 -9 -11 -21 -7 -27 3 -5 -1 -10 -9 -10 -9 0 -16
-4 -16 -8 0 -5 14 -7 30 -4 25 3 29 1 24 -12 -3 -9 -3 -16 0 -16 4 0 11 10 15
23 9 22 9 22 19 -5 6 -15 20 -32 31 -38 17 -8 19 -8 15 4 -4 12 2 14 28 11 18
-3 34 -9 36 -15 2 -5 15 -7 28 -4 19 5 26 1 32 -17 6 -15 11 -18 16 -11 4 7
22 12 39 12 24 0 28 -3 17 -10 -23 -15 -6 -20 20 -7 52 27 60 28 57 5 -1 -15
4 -24 17 -26 12 -3 16 0 11 8 -6 9 -3 9 13 1 26 -14 52 -14 52 -1 0 6 -7 10
-16 10 -14 0 -14 3 -4 15 9 11 16 13 24 5 14 -14 26 -12 26 5 0 8 -7 15 -15
15 -8 0 -15 4 -15 9 0 23 14 41 31 41 19 0 25 -11 12 -23 -3 -4 -7 -32 -9 -62
-1 -39 1 -53 10 -48 8 5 8 3 0 -8 -6 -8 -9 -26 -8 -42 2 -24 0 -26 -16 -17
-10 5 -22 19 -25 30 -3 11 -10 20 -15 20 -13 0 -20 -28 -7 -34 9 -3 9 -5 0 -5
-7 -1 -13 -5 -13 -11 0 -5 7 -6 17 -3 11 4 14 3 9 -5 -4 -7 -28 -11 -58 -10
-34 2 -53 -2 -56 -10 -2 -7 -9 -18 -16 -25 -7 -7 -11 -17 -9 -23 5 -15 -16
-31 -50 -39 -21 -6 -27 -4 -27 9 0 9 -5 16 -10 16 -6 0 -3 -15 6 -32 10 -18
19 -28 21 -23 2 6 19 9 38 7 29 -4 36 0 44 19 7 18 10 19 10 7 1 -10 6 -18 13
-18 6 0 4 -6 -7 -13 -12 -10 -15 -19 -9 -28 5 -8 7 -22 6 -31 -2 -10 2 -18 9
-18 7 0 9 10 7 25 -3 14 1 30 8 36 12 9 14 4 14 -31 0 -36 2 -41 18 -35 9 4
31 8 47 9 17 2 38 6 48 10 10 5 17 4 17 -2 0 -13 -38 -25 -71 -23 -15 1 -34
-5 -43 -14 -9 -9 -19 -14 -24 -11 -4 2 -8 -4 -8 -14 0 -15 5 -18 22 -14 12 3
25 0 29 -7 6 -8 13 -5 26 12 14 18 19 20 19 8 0 -9 12 -21 26 -28 19 -9 23
-15 15 -24 -10 -13 -9 -62 2 -73 4 -4 13 -1 22 6 18 15 42 0 55 -35 8 -19 8
-19 17 4 l10 25 7 -28 c9 -35 5 -39 -26 -27 -15 5 -30 5 -41 0 -11 -7 -17 -6
-17 1 0 6 10 14 22 19 18 7 19 8 4 14 -31 12 -54 -14 -64 -72 -5 -30 -6 -62
-1 -71 18 -35 28 -80 18 -86 -6 -3 -8 -17 -5 -29 6 -25 -15 -55 -40 -55 -17 0
-19 21 -3 37 7 7 13 22 14 35 2 13 6 31 10 41 6 13 2 17 -17 17 -29 0 -78 -39
-78 -62 0 -9 -11 -19 -26 -22 -21 -6 -25 -12 -22 -34 2 -22 -2 -28 -19 -30
-26 -4 -27 0 -11 45 9 26 9 36 0 45 -9 9 -12 4 -12 -26 0 -37 -1 -38 -30 -34
-16 3 -30 1 -30 -4 0 -4 4 -8 9 -8 5 0 11 -14 13 -30 4 -25 1 -31 -19 -36 -13
-4 -23 -9 -24 -13 -11 -63 -6 -131 13 -170 18 -38 23 -42 29 -25 7 17 8 17 8
2 1 -22 31 -24 31 -3 0 8 -4 15 -10 15 -5 0 -10 5 -10 11 0 6 6 9 13 6 6 -2
20 0 30 5 14 7 17 4 18 -14 0 -13 3 -18 5 -12 3 6 1 30 -4 52 -6 23 -7 44 -3
47 3 4 6 26 6 49 0 30 8 52 25 74 14 17 28 31 31 31 3 1 13 -17 23 -39 20 -45
32 -44 44 3 6 25 14 33 35 35 31 4 36 -14 10 -33 -17 -12 -17 -14 1 -34 11
-12 16 -24 12 -28 -4 -4 -11 -1 -16 7 -8 13 -10 12 -10 -2 0 -11 -5 -15 -14
-12 -29 11 -24 -15 7 -35 17 -11 27 -21 21 -21 -5 0 -16 -23 -23 -51 -9 -34
-16 -47 -21 -38 -7 10 -14 10 -34 1 -24 -11 -26 -9 -35 24 -13 47 -5 65 25 58
23 -6 23 -5 13 25 -12 35 -25 40 -34 12 -4 -13 -12 -17 -27 -13 -16 4 -19 2
-12 -9 15 -24 31 -98 24 -110 -6 -8 -9 -7 -13 2 -2 8 -8 1 -11 -16 -10 -42
-21 -60 -37 -60 -20 0 -29 -18 -22 -43 6 -24 23 -30 23 -9 1 6 7 -1 14 -18 12
-25 15 -27 21 -12 4 9 16 17 26 17 15 0 19 -7 19 -35 0 -25 4 -35 16 -35 9 0
14 -6 12 -12 -8 -22 -33 -14 -36 10 -4 26 -22 20 -22 -8 0 -10 -10 -26 -22
-34 -30 -21 -14 -21 17 0 22 14 25 15 25 1 0 -8 -6 -18 -12 -21 -7 -4 -3 -4
10 -2 20 4 27 -4 23 -28 -1 -5 4 -6 11 -3 7 3 20 8 30 12 21 8 35 -30 17 -51
-6 -8 -9 -17 -6 -21 8 -7 -12 -33 -25 -33 -5 0 -8 12 -6 27 3 25 0 27 -30 29
-38 2 -65 21 -57 42 3 10 0 12 -10 8 -11 -4 -15 2 -16 27 -1 27 -3 24 -10 -16
-6 -31 -6 -54 0 -65 9 -14 10 -12 11 12 0 24 2 27 15 16 8 -7 15 -18 15 -26 0
-7 7 -17 16 -22 13 -7 14 -11 3 -17 -7 -5 -14 -4 -17 3 -2 7 -8 10 -12 7 -14
-8 22 -45 43 -45 23 0 33 -26 17 -45 -15 -18 -39 -3 -41 24 0 10 -2 11 -6 4
-2 -7 -11 -13 -19 -13 -8 0 -14 -4 -14 -10 0 -5 5 -10 10 -10 6 0 10 -9 10
-20 0 -22 15 -27 26 -9 4 8 9 7 15 -2 6 -10 1 -20 -14 -32 -21 -16 -21 -18 -4
-31 9 -7 17 -18 17 -23 0 -6 7 -16 15 -23 14 -11 14 -15 1 -29 -15 -16 -9 -41
10 -44 5 -1 9 -13 8 -27 0 -14 1 -18 3 -9 2 10 12 20 21 23 9 3 23 9 30 12 7
3 12 -2 12 -14 0 -11 7 -25 15 -32 8 -7 15 -19 15 -26 0 -8 6 -14 13 -14 9 0
9 -2 -1 -9 -13 -8 -20 -87 -9 -98 4 -3 2 -14 -3 -23 -8 -15 -6 -17 13 -13 18
4 19 3 7 -6 -13 -10 -13 -11 0 -11 12 0 13 -2 1 -9 -11 -7 -9 -11 8 -20 11 -7
21 -21 21 -32 0 -13 4 -18 12 -13 8 5 9 2 5 -10 -4 -10 -7 -20 -7 -23 0 -2 -7
3 -16 11 -24 25 -49 20 -50 -9 -2 -21 2 -25 27 -25 31 0 31 0 34 -60 1 -22 3
-41 6 -41 2 -1 27 2 56 6 35 4 59 3 75 -6 12 -7 26 -12 31 -11 4 1 7 -2 7 -8
0 -5 21 -7 48 -5 26 2 53 4 60 4 6 1 12 8 12 17 0 13 -7 15 -33 10 -30 -6 -33
-4 -44 32 -10 32 -10 39 5 49 9 7 22 16 27 21 6 4 25 14 43 21 38 16 42 31 8
31 -14 0 -28 5 -31 10 -3 6 -22 10 -41 10 -33 0 -46 13 -21 23 7 3 5 6 -5 6
-22 1 -23 20 -2 49 22 32 41 27 61 -15 18 -38 46 -52 80 -39 12 5 13 9 3 21
-10 12 -9 16 3 21 15 6 50 -21 60 -47 3 -8 6 -5 6 9 1 12 10 31 22 43 29 29
11 44 -27 24 -53 -27 -72 -17 -29 17 14 11 25 26 25 34 0 16 26 19 35 4 11
-18 66 -7 78 15 15 28 17 45 11 83 -6 33 -30 44 -40 17 -5 -12 -10 -13 -20 -4
-20 17 -17 31 5 24 12 -3 21 0 25 11 9 23 -3 37 -19 24 -15 -13 -35 -6 -35 12
0 7 13 8 35 5 30 -5 35 -3 35 14 0 11 -7 22 -15 25 -8 4 -15 14 -15 24 0 13 6
16 25 12 22 -4 28 2 45 39 10 24 15 46 10 47 -6 2 -10 13 -10 24 0 17 3 18 15
8 13 -10 15 -9 15 9 0 11 5 21 10 21 14 0 13 33 -2 48 -9 9 -9 12 0 12 7 0 17
-11 22 -25 5 -14 14 -25 20 -25 13 0 13 13 0 26 -8 8 -6 15 6 25 16 13 17 11
12 -28 -4 -24 -3 -45 2 -48 4 -3 10 -22 13 -42 10 -71 14 -94 21 -100 3 -3 7
2 7 13 1 10 2 24 4 29 1 6 3 14 3 19 1 5 9 3 17 -4 8 -7 13 -16 10 -20 -6 -10
24 -22 37 -14 5 4 24 -9 41 -27 31 -33 32 -33 35 -11 2 13 11 31 21 41 16 16
18 16 34 -6 16 -21 16 -22 1 -16 -22 8 -44 -22 -44 -61 0 -17 -4 -37 -9 -45
-19 -30 -1 -41 64 -41 71 0 104 8 84 20 -6 4 3 7 21 5 28 -2 34 -6 34 -27 1
-19 -3 -24 -14 -21 -10 3 -10 1 2 -7 10 -6 41 -14 68 -17 35 -4 54 -12 61 -24
13 -25 35 -24 56 1 24 28 33 25 33 -11 0 -17 11 -45 26 -64 l26 -34 -21 -56
c-17 -46 -19 -59 -9 -75 7 -11 21 -20 32 -20 15 0 16 3 7 14 -9 11 -8 17 3 28
7 8 16 23 18 34 2 10 12 20 23 23 11 2 23 8 26 13 12 19 30 -2 19 -22 -7 -14
-6 -20 8 -25 16 -6 16 -7 -1 -20 -12 -9 -19 -28 -20 -57 -2 -43 -3 -44 -35
-43 -18 0 -38 -5 -44 -12 -6 -7 -21 -13 -34 -13 -29 0 -32 -16 -4 -23 14 -4
21 -17 26 -56 9 -70 24 -89 58 -73 16 7 26 20 26 32 0 11 5 20 10 20 6 0 10
-8 10 -18 0 -9 9 -23 20 -30 11 -7 20 -19 20 -27 0 -13 21 -21 34 -12 9 5 46
-37 46 -52 0 -23 77 -104 83 -88 3 6 6 2 6 -11 1 -12 7 -31 14 -43 10 -17 9
-22 -5 -33 -23 -17 -23 -37 2 -69 11 -14 20 -32 20 -41 0 -9 6 -26 13 -37 10
-17 10 -23 0 -26 -7 -3 -13 -11 -13 -19 0 -9 5 -12 11 -9 17 11 46 -23 54 -61
8 -46 -2 -74 -26 -74 -25 0 -24 -16 6 -68 15 -27 27 -68 31 -108 4 -35 11 -67
15 -70 5 -3 9 -14 9 -25 0 -10 5 -19 10 -19 6 0 10 -9 10 -21 0 -34 54 -74
100 -75 27 0 40 4 40 13 0 7 7 13 16 13 8 0 12 5 9 10 -5 8 -11 7 -21 -1 -11
-9 -18 -9 -26 -1 -13 13 4 16 70 14 17 0 32 4 32 9 0 6 -4 7 -10 4 -12 -7 -12
11 -1 40 6 16 16 19 54 16 29 -1 47 2 47 8 0 6 -4 11 -10 11 -22 0 -8 30 21
44 37 18 57 11 36 -12 -15 -18 -22 -72 -9 -72 10 0 42 38 42 50 0 6 4 10 10
10 11 0 1 -32 -12 -41 -5 -3 -3 -11 5 -17 11 -9 18 -8 32 8 9 10 15 25 12 32
-7 19 -3 33 7 30 5 -2 6 6 3 18 -6 22 12 27 31 8 7 -7 12 -8 12 -2 0 5 -9 15
-20 22 -35 22 -21 32 15 12 27 -15 37 -17 41 -7 10 26 -3 61 -32 85 -18 15
-21 20 -8 13 18 -9 23 -6 33 16 10 22 14 24 21 12 8 -12 12 -11 27 4 17 17 17
19 1 28 -20 11 -24 49 -6 49 9 0 9 3 0 12 -19 19 -14 27 21 36 17 5 31 14 30
21 -2 6 10 11 28 11 34 0 68 15 87 39 11 15 13 15 25 -1 22 -27 48 -5 37 32
-9 32 -5 36 20 20 13 -9 13 -11 0 -20 -11 -7 -12 -10 -2 -10 20 0 70 -38 83
-62 10 -18 9 -20 -7 -14 -18 6 -18 5 0 -9 16 -12 17 -15 4 -15 -11 0 -15 -6
-11 -20 3 -11 9 -20 14 -20 5 0 9 -7 9 -16 0 -8 4 -13 9 -9 5 3 16 -4 24 -15
13 -19 16 -20 31 -5 9 9 16 13 16 8 0 -4 5 -1 10 7 8 12 10 10 8 -9 -2 -13 3
-26 11 -29 10 -3 11 0 5 9 -6 11 -5 12 7 2 17 -13 87 -15 95 -2 3 5 -2 9 -11
9 -11 0 -15 5 -12 14 3 8 -1 17 -9 20 -8 3 -14 1 -14 -4 0 -5 -6 -7 -14 -4
-11 4 -12 11 -5 28 9 18 18 22 49 21 33 -1 38 1 30 15 -5 9 -5 22 0 30 5 8 7
17 5 21 -3 3 9 6 25 7 17 0 30 -4 30 -9 0 -5 -4 -9 -9 -9 -12 0 -7 -46 7 -63
7 -8 7 -18 2 -27 -8 -12 -10 -10 -10 8 0 21 -10 29 -22 16 -4 -3 0 -21 8 -41
11 -24 12 -38 5 -47 -6 -7 -8 -16 -4 -19 3 -4 1 -7 -6 -7 -8 0 -10 -7 -6 -19
3 -12 0 -21 -10 -25 -8 -3 -15 0 -15 7 -1 7 -10 1 -21 -12 -13 -16 -32 -25
-52 -26 -25 -1 -33 -6 -35 -23 -2 -13 2 -22 10 -22 16 -1 53 -28 47 -35 -3 -2
-18 2 -33 11 -16 8 -31 12 -34 9 -3 -3 0 -5 6 -5 7 0 12 -4 12 -10 0 -5 -7
-10 -16 -10 -24 0 -12 -35 14 -38 18 -3 21 0 15 15 -7 17 -5 17 22 -1 19 -12
30 -15 33 -8 2 8 8 8 22 0 21 -14 55 6 43 26 -4 6 1 5 10 -3 15 -12 17 -11 17
12 0 22 22 43 42 39 4 -1 5 5 2 13 -4 8 -1 15 5 15 6 0 11 9 11 19 0 12 12 24
31 33 27 12 30 17 27 53 -2 37 0 41 35 60 35 19 52 48 25 42 -7 -1 -12 6 -12
16 1 11 -6 17 -20 18 -20 0 -20 1 -1 8 13 6 23 4 28 -5 9 -16 37 -19 37 -4 0
6 -5 10 -11 10 -5 0 -7 5 -3 11 3 6 0 15 -7 20 -8 5 -9 9 -3 9 5 0 10 16 11
36 1 38 16 56 39 47 34 -13 112 96 80 112 -8 3 -7 7 2 11 6 3 9 10 6 16 -4 6
-1 9 7 6 8 -3 16 -13 18 -24 4 -23 34 -46 42 -33 8 13 39 0 39 -17 0 -8 9 -14
20 -14 16 0 20 7 21 33 1 29 2 29 8 8 9 -35 25 -36 50 -5 12 15 21 23 21 18 0
-5 14 -15 30 -21 17 -6 30 -19 30 -28 0 -9 5 -13 10 -10 6 3 10 -4 11 -17 l0
-23 11 22 c6 12 17 24 25 27 8 3 11 1 8 -4 -10 -16 18 -11 60 10 34 17 39 25
13 21 -11 -1 -10 11 2 29 9 13 11 13 20 0 5 -8 11 -19 14 -25 2 -6 9 -5 17 2
19 18 29 16 23 -4 -5 -16 -4 -16 6 0 7 10 10 28 7 40 -5 19 -4 20 6 5 9 -14
14 -12 39 19 15 20 28 42 28 49 0 8 7 14 15 14 8 0 15 5 15 10 0 6 9 10 20 10
11 0 20 7 20 15 0 9 8 19 18 22 32 12 46 63 17 63 -8 0 -15 1 -15 3 1 9 29 80
30 73 0 -5 9 -1 19 8 11 10 25 15 30 11 6 -3 11 1 11 9 0 8 8 17 18 19 13 4
11 5 -5 6 -13 0 -23 -2 -23 -7 0 -4 -9 -13 -20 -20 -18 -11 -20 -10 -19 15 0
16 3 22 6 16 9 -23 22 -14 17 12 -2 14 0 25 6 25 5 0 10 -4 10 -10 0 -5 5 -10
10 -10 6 0 10 6 10 14 0 8 6 17 13 19 9 4 8 8 -3 16 -13 10 -12 14 9 31 45 38
71 15 31 -28 -21 -22 -28 -48 -10 -37 6 3 10 -1 10 -9 0 -12 7 -14 30 -9 25 4
30 2 30 -13 1 -16 5 -14 26 11 19 24 24 38 20 67 -5 35 13 67 22 40 4 -14 32
-16 32 -3 0 5 9 12 19 16 22 7 36 75 15 75 -6 0 -14 7 -18 15 -4 12 0 14 22 9
42 -10 44 -10 49 4 3 6 -3 12 -12 12 -13 0 -15 6 -10 29 5 24 2 30 -15 36 -12
4 -19 9 -16 12 12 13 -26 35 -50 29 -15 -4 -23 -3 -20 3 3 5 0 12 -6 15 -7 4
-3 4 9 2 15 -3 20 0 16 10 -3 8 -11 14 -19 14 -8 0 -14 5 -14 11 0 6 -7 8 -17
4 -15 -5 -16 -4 -5 6 6 7 12 21 12 30 0 10 6 19 13 22 9 3 9 7 -2 20 -7 10
-10 17 -5 18 5 0 0 4 -11 9 -19 8 -19 9 3 9 12 1 22 -4 22 -11 0 -6 3 -8 7 -5
3 4 14 -4 23 -19 15 -22 18 -23 24 -8 4 9 5 17 4 18 -22 9 -43 26 -43 35 0 7
-8 18 -17 25 -16 12 -16 14 -1 36 15 22 15 24 -7 42 -18 15 -25 16 -31 6 -13
-20 -12 9 1 33 7 13 7 19 0 19 -5 0 -10 5 -10 11 0 5 4 8 9 5 5 -4 4 8 -2 25
-8 20 -13 25 -15 15 -3 -12 -8 -14 -21 -6 -24 12 -35 50 -15 50 8 0 14 5 14
10 0 6 7 10 16 10 9 0 13 -5 9 -12 -4 -7 3 -2 14 12 l21 25 6 -22 c4 -13 13
-23 21 -23 11 0 11 4 3 21 -14 25 -40 36 -49 20 -11 -17 -41 -2 -41 21 0 10
-4 17 -9 14 -11 -7 -33 18 -24 27 3 4 -1 7 -11 7 -10 0 -14 -5 -10 -12 5 -7 3
-8 -6 -3 -10 6 -9 11 4 21 13 9 14 13 4 16 -8 3 -13 21 -14 46 l0 42 25 -17
c15 -9 23 -12 19 -8 -13 14 16 33 36 23 13 -7 21 -6 27 3 6 10 10 7 18 -11 8
-21 10 -16 10 32 1 39 -4 62 -15 72 -14 15 -14 16 0 16 12 0 15 9 13 35 -1 19
-6 33 -12 31 -5 -2 -9 -9 -7 -15 3 -16 -14 -14 -32 5 -9 9 -16 11 -16 4 0 -6
-4 -8 -10 -5 -5 3 -10 10 -10 14 0 12 34 9 43 -3 4 -7 9 -3 13 12 8 26 12 27
36 5 24 -22 30 -13 17 26 -9 25 -14 29 -25 20 -8 -6 -14 -7 -14 -2 0 16 24 33
47 33 20 0 22 -3 14 -19 -8 -14 -7 -22 6 -32 14 -12 15 -11 9 11 -5 17 -4 21
2 11 5 -7 15 -11 21 -7 7 5 9 1 5 -8 -4 -11 0 -16 10 -16 19 0 21 -16 4 -23
-10 -4 -10 -6 0 -6 7 -1 10 -6 6 -13 -4 -7 -3 -8 5 -4 6 4 9 12 6 17 -4 5 1
10 9 10 24 2 29 4 52 16 19 11 21 10 16 -14 -3 -18 -1 -24 7 -19 6 4 11 12 11
18 0 6 10 19 22 29 11 11 16 19 11 19 -6 0 -13 10 -17 23 l-6 22 -20 -25 -20
-25 9 26 c8 23 7 26 -8 22 -17 -4 -17 -1 -6 44 10 36 10 50 2 58 -7 6 -13 16
-14 22 -4 20 23 4 35 -20 9 -18 11 -19 11 -4 1 9 5 17 9 17 5 0 9 7 9 15 0 18
-14 20 -19 3 -3 -7 -7 -5 -11 6 -4 9 -3 15 2 12 15 -10 21 40 10 73 -6 18 -14
30 -16 27 -6 -6 -63 52 -63 64 0 17 38 -3 44 -23 4 -17 7 -18 20 -7 18 14 21
56 6 65 -5 3 -10 9 -10 13 0 8 49 32 65 32 24 0 11 31 -15 36 -24 5 -27 10
-28 57 -2 34 1 47 7 38 5 -7 11 -9 13 -5 3 5 2 2 0 -6 -13 -38 1 -87 17 -61 6
9 11 10 15 2 12 -18 36 -12 36 9 0 12 -5 17 -14 14 -17 -6 -31 12 -16 21 19
12 10 34 -27 71 -30 31 -34 39 -25 55 14 22 4 52 -15 45 -8 -3 -17 3 -21 15
-5 11 -11 20 -15 20 -26 -3 -29 0 -18 13 7 9 8 17 2 20 -5 3 -12 0 -14 -6 -3
-7 -6 -3 -6 10 -1 12 4 22 9 22 14 0 13 13 -3 34 -12 16 -17 17 -37 6 -23 -12
-23 -12 -17 33 7 47 -7 73 -24 46 -5 -9 -3 -16 5 -19 10 -4 7 -10 -11 -24 -25
-19 -25 -19 -18 4 5 15 4 20 -4 16 -6 -4 -11 -1 -12 6 0 7 -4 4 -9 -7 l-9 -20
-1 20 c-2 11 -2 23 -1 28 0 4 -6 7 -14 7 -8 0 -15 -7 -15 -15 0 -8 -9 -15 -20
-15 -11 0 -20 -5 -20 -11 0 -5 -5 -7 -11 -3 -8 4 -7 9 2 15 8 5 9 9 3 9 -5 0
-19 7 -30 16 -10 8 -13 13 -6 9 6 -3 12 -2 12 3 0 15 -26 33 -35 24 -5 -4 -5
-1 -1 6 5 9 1 15 -13 19 -21 5 -30 33 -11 33 6 0 10 9 10 20 0 25 -16 26 -29
3 -7 -13 -10 -14 -11 -4 0 8 8 20 18 27 16 12 15 13 -5 11 -13 -1 -23 -5 -23
-9 0 -4 -18 -8 -41 -8 -29 0 -40 -4 -36 -13 2 -6 -2 -18 -9 -25 -8 -7 -14 -10
-14 -6 0 3 -7 1 -15 -6 -12 -10 -15 -10 -15 4 0 9 -8 16 -17 16 -16 0 -16 1 0
18 16 15 19 15 27 2 8 -13 10 -12 10 3 0 9 -7 17 -15 17 -10 0 -13 9 -11 34 2
18 6 38 10 44 5 8 2 10 -8 6 -9 -3 -16 -2 -16 4 0 6 12 15 28 20 21 8 22 11 7
11 -23 0 -55 -21 -55 -37 0 -6 -4 -14 -10 -17 -11 -7 -2 23 12 42 6 7 7 17 4
22 -4 5 -2 12 4 16 5 3 10 1 10 -6 0 -27 25 12 26 40 1 21 -4 31 -17 34 -26 7
-77 -7 -61 -17 22 -13 12 -24 -20 -21 -27 2 -32 7 -30 22 2 17 -2 20 -23 16
-15 -3 -25 -1 -25 6 0 6 -6 11 -13 11 -7 0 -17 11 -23 25 -7 18 -13 22 -23 16
-13 -8 -13 -12 -1 -26 12 -14 12 -18 -1 -26 -11 -6 -15 -2 -17 19 -7 71 -28
96 -59 70 -13 -10 -15 -7 -12 27 4 38 3 40 -23 37 -16 -1 -28 2 -28 7 0 6 -8
8 -17 5 -15 -5 -15 -3 1 10 11 9 30 16 43 16 28 0 29 10 3 42 l-19 25 32 2
c18 1 39 2 47 3 8 1 24 7 35 15 19 14 19 14 -5 13 -49 -4 -60 0 -60 20 0 12
-7 20 -17 20 -16 0 -16 2 -3 11 11 8 7 9 -17 5 -25 -4 -33 -2 -33 9 0 11 7 14
24 9 13 -3 27 -1 30 5 4 7 -2 12 -16 13 -13 0 -3 4 22 8 37 6 40 7 13 8 -38 2
-64 12 -59 21 3 4 -13 12 -35 18 -28 7 -39 7 -39 -1 0 -6 -7 -3 -14 7 -12 15
-14 16 -20 2 -5 -13 -10 -12 -41 5 -43 24 -40 24 -42 0 -1 -11 2 -18 8 -15 5
4 9 -3 9 -14 0 -12 -5 -21 -11 -21 -5 0 -8 -4 -4 -9 7 -13 -14 -59 -31 -65 -8
-3 -14 -1 -14 4 0 6 -8 10 -17 11 -11 0 -13 3 -5 6 26 10 11 24 -20 19 -24 -4
-28 -4 -13 3 18 8 18 10 3 16 -13 5 -15 16 -11 57 5 43 3 50 -9 45 -10 -3 -15
0 -14 11 0 9 -6 17 -14 17 -8 0 -14 -8 -14 -17 1 -11 -5 -18 -17 -18 -10 0
-19 5 -19 11 0 5 5 7 10 4 6 -3 10 0 10 9 0 8 6 17 13 20 10 5 10 7 0 12 -7 3
-13 13 -13 21 0 11 -8 7 -25 -13 -14 -16 -25 -24 -25 -19 0 6 -5 2 -11 -9 -9
-15 -13 -16 -20 -5 -14 22 -11 27 16 24 19 -2 23 1 15 10 -5 6 -8 14 -5 16 4
5 -22 9 -61 9 -12 0 -29 9 -39 20 -24 27 -43 25 -71 -5 -28 -30 -39 -32 -24
-6 16 31 12 41 -15 41 -14 0 -25 -4 -25 -10 0 -5 5 -10 12 -10 6 0 8 -3 5 -6
-4 -4 -14 -1 -22 6 -16 13 -115 22 -113 11 2 -20 -4 -31 -13 -25 -8 4 -9 -1
-4 -15 4 -15 1 -29 -10 -41 -13 -15 -14 -23 -6 -37 11 -17 11 -17 9 1 -5 31
26 43 52 18 12 -11 28 -18 36 -15 8 3 14 0 14 -7 0 -6 4 -9 9 -5 6 3 14 -3 20
-12 10 -17 10 -17 11 0 0 21 5 21 41 0 17 -10 27 -24 26 -35 -5 -27 -15 -33
-34 -16 -10 9 -34 15 -53 14 -30 -1 -35 -4 -33 -24 2 -13 -1 -21 -6 -18 -5 3
-12 -1 -15 -10 -4 -10 -2 -13 7 -8 9 5 9 4 1 -5 -13 -15 -41 -5 -47 17 -3 12
-5 9 -6 -6 0 -13 -5 -20 -11 -17 -5 3 -10 1 -10 -4 0 -6 -7 -11 -15 -11 -8 0
-15 -4 -15 -10 0 -5 -5 -10 -11 -10 -5 0 -9 10 -7 23 2 17 -1 21 -16 19 -11
-2 -15 1 -11 7 3 6 12 11 18 11 7 0 13 16 14 35 1 19 -3 35 -8 35 -5 0 -9 -7
-9 -15 0 -8 -4 -15 -10 -15 -5 0 -10 7 -10 15 0 18 -5 18 -30 5 -12 -7 -17
-16 -13 -27 4 -11 3 -14 -5 -9 -7 4 -12 21 -12 37 0 20 -4 29 -12 26 -7 -2
-12 -9 -11 -16 2 -6 -9 -13 -25 -17 -15 -3 -33 -7 -40 -10 -14 -4 -52 30 -52
46 0 6 -8 10 -17 8 -10 -2 -19 4 -21 15 -2 11 2 16 10 15 7 -2 13 4 13 12 0 8
8 24 18 34 9 11 17 25 16 30 0 6 -3 5 -6 -2 -4 -10 -8 -10 -19 -1 -11 9 -17 9
-28 0 -8 -7 -28 -13 -45 -13 -17 -1 -39 -9 -50 -19 -19 -18 -20 -18 -18 1 1
10 5 16 9 14 4 -3 5 1 2 9 -3 9 -14 12 -31 9 -14 -3 -24 -1 -20 4 3 5 -35 9
-84 10 -49 1 -89 -3 -89 -7 0 -5 -9 -9 -20 -9 -11 0 -20 -4 -20 -10 0 -5 8 -7
18 -3 12 4 14 3 7 -5 -14 -16 -55 -4 -48 14 7 18 -5 18 -23 -1 -17 -17 -44
-20 -44 -5 0 6 5 10 10 10 6 0 10 5 10 11 0 6 -8 8 -19 4 -11 -3 -25 1 -33 9
-24 24 -68 25 -68 2 0 -11 -5 -12 -25 -3 -14 7 -25 17 -25 23 0 7 -7 15 -16
18 -23 9 -27 8 -21 -8z m-585 -95 c3 -8 -1 -12 -9 -9 -7 2 -15 10 -17 17 -3 8
1 12 9 9 7 -2 15 -10 17 -17z m1058 4 c12 -8 25 -11 29 -7 5 4 5 -1 2 -10 -4
-12 -1 -18 10 -18 12 0 13 -3 4 -13 -6 -8 -9 -16 -6 -19 3 -2 -2 -5 -10 -5 -8
0 -11 5 -8 11 4 6 0 5 -9 -2 -14 -11 -18 -10 -27 6 -7 14 -17 18 -31 15 -14
-4 -20 0 -20 12 0 13 6 16 21 12 17 -5 20 -2 16 14 -6 23 1 24 29 4z m589 -1
c19 -16 19 -16 -7 -12 -16 3 -28 1 -28 -3 0 -16 -28 -10 -34 7 -4 12 -2 15 9
10 8 -3 15 -1 15 4 0 15 22 11 45 -6z m-445 -14 c0 -5 -2 -10 -4 -10 -3 0 -8
5 -11 10 -3 6 -1 10 4 10 6 0 11 -4 11 -10z m-1858 -40 l31 -30 -30 0 c-16 0
-34 -5 -41 -12 -9 -9 -12 -9 -12 0 0 7 -7 12 -15 12 -8 0 -15 5 -15 11 0 8 -4
8 -14 0 -10 -9 -15 -8 -20 4 -3 9 0 15 9 15 8 0 15 7 15 15 0 27 57 18 92 -15z
m1828 -12 c0 -5 -6 -8 -14 -8 -9 0 -12 7 -9 21 4 16 8 17 14 7 5 -7 9 -16 9
-20z m-990 12 c0 -5 -5 -10 -11 -10 -5 0 -7 5 -4 10 3 6 8 10 11 10 2 0 4 -4
4 -10z m1720 -39 c0 -14 2 -14 10 -1 8 12 10 12 10 1 0 -11 3 -11 15 -1 8 7
22 10 30 6 26 -10 16 -35 -20 -50 -19 -8 -35 -21 -35 -28 -1 -18 -40 33 -40
52 0 13 1 13 10 0 13 -19 13 -4 1 19 -7 13 -6 18 5 18 7 0 14 -7 14 -16z
m-1480 -1 c0 -5 -5 -10 -11 -10 -5 0 -7 5 -4 10 3 6 8 10 11 10 2 0 4 -4 4
-10z m50 -10 c0 -11 -2 -20 -4 -20 -2 0 -6 9 -9 20 -3 11 -1 20 4 20 5 0 9 -9
9 -20z m441 6 c5 3 9 0 9 -6 0 -15 -23 -7 -26 8 -1 7 0 8 3 2 2 -5 9 -8 14 -4z
m954 5 c7 -12 -12 -24 -25 -16 -11 7 -4 25 10 25 5 0 11 -4 15 -9z m-45 -15
c0 -8 6 -17 13 -19 8 -4 7 -6 -3 -6 -9 -1 -23 8 -33 19 -16 19 -16 20 3 20 11
0 20 -6 20 -14z m205 -26 c3 -5 1 -10 -4 -10 -6 0 -11 5 -11 10 0 6 2 10 4 10
3 0 8 -4 11 -10z m-1515 -10 c0 -5 -2 -10 -4 -10 -3 0 -8 5 -11 10 -3 6 -1 10
4 10 6 0 11 -4 11 -10z m420 6 c0 -2 -7 -7 -16 -10 -8 -3 -12 -2 -9 4 6 10 25
14 25 6z m745 -6 c-4 -6 -10 -8 -15 -5 -4 3 -11 -1 -13 -7 -3 -8 -6 -6 -6 5
-1 11 6 17 20 17 11 0 17 -5 14 -10z m637 -15 c-3 -19 -10 -25 -31 -24 -25 0
-25 1 -4 9 15 6 21 15 17 25 -4 9 -1 15 9 15 10 0 13 -8 9 -25z m-2798 -10
c-4 -8 -10 -13 -15 -10 -4 3 -6 12 -3 20 4 8 10 13 15 10 4 -3 6 -12 3 -20z
m2486 9 c0 -14 -3 -14 -15 -4 -8 7 -15 14 -15 16 0 2 7 4 15 4 8 0 15 -7 15
-16z m-2523 -16 c-3 -8 -6 -5 -6 6 -1 11 2 17 5 13 3 -3 4 -12 1 -19z m-142
-18 c3 -5 1 -10 -4 -10 -6 0 -11 5 -11 10 0 6 2 10 4 10 3 0 8 -4 11 -10z
m205 0 c0 -5 -4 -10 -10 -10 -5 0 -10 5 -10 10 0 6 5 10 10 10 6 0 10 -4 10
-10z m-127 -20 c-3 -11 -7 -20 -9 -20 -2 0 -8 9 -14 20 -9 17 -8 20 9 20 14 0
18 -5 14 -20z m2067 10 c0 -5 -4 -10 -10 -10 -5 0 -10 5 -10 10 0 6 5 10 10
10 6 0 10 -4 10 -10z m-2280 -20 c-12 -23 -40 -27 -40 -6 0 13 14 21 43 25 4
0 3 -8 -3 -19z m3100 1 c0 -11 -4 -23 -10 -26 -6 -4 -10 5 -10 19 0 14 5 26
10 26 6 0 10 -9 10 -19z m-420 -20 c0 -11 -4 -23 -10 -26 -6 -4 -10 5 -10 19
0 14 5 26 10 26 6 0 10 -9 10 -19z m310 9 c0 -5 -2 -10 -4 -10 -3 0 -8 5 -11
10 -3 6 -1 10 4 10 6 0 11 -4 11 -10z m-3070 -18 c-1 -28 -69 -39 -78 -12 -3
9 1 11 11 7 9 -3 18 -3 21 1 6 10 46 13 46 4z m2412 -31 c7 11 11 11 15 2 2
-7 11 -13 19 -13 18 0 18 -24 -1 -40 -12 -10 -12 -15 2 -36 14 -22 14 -24 -1
-18 -9 4 -14 9 -12 12 10 9 -15 31 -29 26 -7 -3 -18 4 -24 15 -14 25 -14 44
-1 36 6 -3 10 2 11 12 0 12 2 14 6 4 5 -11 7 -11 15 0z m733 -33 c-4 -20 -1
-34 7 -39 8 -5 8 -9 2 -9 -6 0 -19 9 -29 20 -17 19 -17 20 1 20 18 1 18 2 2
14 -13 9 -14 16 -6 24 18 18 29 3 23 -30z m-791 16 c8 -21 8 -24 -3 -24 -5 0
-11 9 -14 20 -6 24 8 27 17 4z m-104 -14 c-8 -5 -19 -10 -25 -10 -5 0 -3 5 5
10 8 5 20 10 25 10 6 0 3 -5 -5 -10z m550 -10 c0 -5 -2 -10 -4 -10 -3 0 -8 5
-11 10 -3 6 -1 10 4 10 6 0 11 -4 11 -10z m-466 -22 c17 -23 21 -57 9 -59 -5
0 -15 -2 -24 -4 -13 -2 -16 6 -15 41 1 49 8 54 30 22z m267 -3 c3 -11 1 -26
-5 -34 -8 -11 -8 -15 2 -18 17 -6 15 -20 -4 -27 -8 -3 -13 -2 -9 3 3 5 -2 17
-12 26 -13 14 -14 21 -5 36 16 24 15 27 -5 33 -11 3 -7 4 7 3 15 -1 27 -10 31
-22z m-2904 -17 c-3 -7 -5 -2 -5 12 0 14 2 19 5 13 2 -7 2 -19 0 -25z m3046
11 c3 -11 3 -27 0 -35 -9 -24 -31 3 -25 31 5 30 18 32 25 4z m104 -5 c15 -14
14 -16 -8 -12 -15 2 -23 -2 -21 -9 1 -7 -7 -13 -18 -13 -20 0 -20 1 -4 25 19
29 29 31 51 9z m153 -4 c0 -4 -6 -10 -14 -13 -10 -4 -12 0 -9 14 5 18 23 18
23 -1z m-459 -5 c0 -6 -10 -12 -23 -13 -19 -4 -20 -2 -9 12 15 17 33 18 32 1z
m-2806 -4 c3 -5 1 -12 -4 -15 -5 -3 -11 1 -15 9 -6 16 9 21 19 6z m3035 -64
c10 -4 8 -6 -7 -6 -16 -1 -23 5 -23 17 0 10 3 13 8 6 4 -6 14 -14 22 -17z
m-350 3 c0 -5 -2 -10 -4 -10 -3 0 -8 5 -11 10 -3 6 -1 10 4 10 6 0 11 -4 11
-10z m836 -71 c3 -6 1 -16 -5 -22 -9 -9 -14 -8 -21 3 -5 8 -10 18 -10 23 0 11
28 8 36 -4z m-581 -9 c3 -6 -1 -7 -9 -4 -18 7 -21 14 -7 14 6 0 13 -4 16 -10z
m129 -5 c3 -8 1 -15 -4 -15 -6 0 -10 7 -10 15 0 8 2 15 4 15 2 0 6 -7 10 -15z
m-3761 -95 c8 0 8 -3 0 -11 -9 -9 -16 -7 -30 7 -17 17 -17 18 0 11 10 -4 24
-7 30 -7z m997 -4 c0 -2 -7 -7 -16 -10 -8 -3 -12 -2 -9 4 6 10 25 14 25 6z
m2705 -17 c-8 -12 -35 -12 -35 0 0 11 22 20 33 14 4 -2 5 -9 2 -14z m-3010 1
c-3 -5 -10 -10 -16 -10 -5 0 -9 5 -9 10 0 6 7 10 16 10 8 0 12 -4 9 -10z
m-725 -10 c0 -5 -4 -10 -10 -10 -5 0 -10 5 -10 10 0 6 5 10 10 10 6 0 10 -4
10 -10z m987 4 c-3 -3 -12 -4 -19 -1 -8 3 -5 6 6 6 11 1 17 -2 13 -5z m3463
-9 c0 -9 -6 -12 -15 -9 -8 4 -12 10 -9 15 8 14 24 10 24 -6z m-4275 -73 c-3
-3 -5 0 -5 6 0 7 -7 12 -15 12 -8 0 -15 5 -15 11 0 5 5 7 10 4 6 -3 10 0 11 7
0 7 5 2 10 -11 5 -13 7 -26 4 -29z m328 -32 c4 0 5 5 2 10 -3 6 1 10 10 10 12
0 14 -6 9 -27 -8 -34 -14 -42 -14 -20 0 10 -5 17 -11 17 -5 0 -7 -6 -3 -12 6
-10 5 -10 -8 -1 -8 7 -17 11 -20 8 -3 -3 -11 2 -18 10 -7 9 -9 15 -4 14 23 -4
32 3 28 24 -3 17 -1 16 8 -5 7 -16 16 -28 21 -28z m487 46 c0 -2 -7 -6 -15
-10 -8 -3 -15 -1 -15 4 0 6 7 10 15 10 8 0 15 -2 15 -4z m20 -26 c0 -5 -4 -10
-9 -10 -6 0 -13 5 -16 10 -3 6 1 10 9 10 9 0 16 -4 16 -10z m3532 -22 c-10
-10 -15 -10 -22 2 -6 9 -5 17 3 22 18 11 33 -10 19 -24z m-3632 -78 c0 -5 -2
-10 -4 -10 -3 0 -8 5 -11 10 -3 6 -1 10 4 10 6 0 11 -4 11 -10z m3685 -30 c-7
-12 -32 -13 -39 -2 -2 4 7 9 20 10 15 1 22 -2 19 -8z m-3781 -29 c-2 -3 -12 3
-22 13 -16 17 -16 18 5 5 12 -7 20 -15 17 -18z m-137 -27 c9 -19 9 -24 0 -20
-7 3 -20 9 -29 12 -10 4 -18 13 -18 20 0 24 34 15 47 -12z m3550 -46 c-3 -8
-6 -5 -6 6 -1 11 2 17 5 13 3 -3 4 -12 1 -19z m-3764 -37 c3 -14 1 -18 -9 -14
-8 3 -14 11 -14 19 0 21 17 17 23 -5z m4478 -5 c11 0 16 -8 15 -23 -1 -26 -7
-28 -24 -11 -9 9 -12 9 -12 0 0 -7 -5 -12 -11 -12 -5 0 -7 4 -4 10 3 5 1 19
-6 31 -10 20 -9 21 7 14 11 -4 26 -8 35 -9z m-166 -24 c-3 -3 -11 0 -18 7 -9
10 -8 11 6 5 10 -3 15 -9 12 -12z m-4241 -57 c3 -9 0 -15 -8 -15 -8 0 -16 7
-20 15 -3 9 0 15 8 15 8 0 16 -7 20 -15z m46 11 c0 -3 -4 -8 -10 -11 -5 -3
-10 -1 -10 4 0 6 5 11 10 11 6 0 10 -2 10 -4z m111 -32 c4 -12 3 -27 -2 -35
-6 -10 -9 -7 -9 14 0 15 -4 27 -10 27 -5 0 -10 5 -10 11 0 17 22 5 31 -17z
m-86 6 c3 -5 -3 -10 -15 -10 -12 0 -18 5 -15 10 3 6 10 10 15 10 5 0 12 -4 15
-10z m4346 -10 c6 0 7 -5 3 -11 -3 -6 7 -4 24 5 32 17 42 13 42 -16 0 -11 -4
-16 -11 -12 -8 5 -8 1 0 -14 15 -27 0 -36 -46 -27 -26 5 -33 3 -28 -6 5 -7 3
-10 -6 -7 -8 3 -14 13 -14 24 0 10 -5 19 -12 19 -16 0 -38 23 -30 31 4 4 12 2
19 -4 9 -7 17 -6 25 3 7 8 9 15 5 18 -4 2 -1 2 6 0 8 -1 18 -3 23 -3z m-81
-52 c0 -19 -2 -20 -10 -8 -13 19 -13 30 0 30 6 0 10 -10 10 -22z m173 -5 c-5
-12 -3 -14 7 -8 9 5 11 4 6 -3 -4 -7 -1 -12 8 -12 9 0 16 -5 16 -11 0 -6 -7
-9 -15 -5 -8 3 -15 1 -15 -4 0 -6 5 -10 11 -10 5 0 7 -4 4 -10 -9 -15 -22 -12
-29 7 -4 9 -2 20 5 23 8 6 8 9 0 14 -6 4 -11 16 -11 27 0 11 4 18 10 14 5 -3
6 -13 3 -22z m-4385 -2 c3 -8 -1 -12 -9 -9 -7 2 -15 10 -17 17 -3 8 1 12 9 9
7 -2 15 -10 17 -17z m-42 -20 c0 -11 -4 -17 -8 -15 -4 3 -8 12 -8 20 0 8 4 14
8 14 4 0 8 -9 8 -19z m74 -26 c0 -8 5 -15 10 -15 6 0 10 -7 10 -15 0 -8 5 -15
10 -15 6 0 9 5 8 11 -2 6 3 14 10 16 18 7 15 -8 -8 -37 -15 -20 -20 -21 -20
-8 0 9 -8 23 -18 30 -25 18 -36 48 -17 48 8 0 15 -7 15 -15z m4291 -12 c-12
-20 -14 -14 -5 12 4 9 9 14 11 11 3 -2 0 -13 -6 -23z m-235 -2 c-4 -5 -1 -11
6 -13 8 -3 6 -7 -5 -11 -17 -6 -24 12 -10 26 9 10 15 8 9 -2z m-4089 -7 c-3
-3 -12 -4 -19 -1 -8 3 -5 6 6 6 11 1 17 -2 13 -5z m4264 -27 c-10 -9 -11 -8
-5 6 3 10 9 15 12 12 3 -3 0 -11 -7 -18z m90 -32 c-4 -5 -6 -20 -5 -32 0 -13
-2 -23 -7 -23 -5 0 -6 -7 -3 -15 7 -17 -31 -22 -41 -5 -3 6 -2 10 4 10 5 0 8
9 6 20 -2 11 2 20 8 20 7 0 4 7 -7 15 -10 7 -15 18 -11 24 3 6 1 11 -5 11 -6
0 -9 4 -6 9 3 5 21 1 40 -8 18 -9 31 -20 27 -26z m-879 16 c8 12 9 12 6 0 -6
-22 -28 -25 -27 -4 0 12 2 14 6 4 5 -11 7 -11 15 0z m938 -48 c0 -10 -4 -14
-8 -8 -4 6 -11 13 -16 18 -5 4 -2 7 7 7 10 0 17 -8 17 -17z m-10 -69 c0 -17
-22 -14 -28 4 -2 7 3 12 12 12 9 0 16 -7 16 -16z m-4290 -40 c0 -9 -11 -25
-25 -36 -19 -15 -24 -25 -19 -44 6 -21 3 -24 -24 -24 -17 0 -34 5 -37 10 -3 6
-15 10 -26 10 -10 0 -19 6 -19 14 0 15 21 26 49 26 30 0 71 24 71 43 0 9 7 17
15 17 8 0 15 -7 15 -16z m-141 -20 c-14 -18 -24 -11 -15 11 3 9 11 13 16 10 8
-5 7 -11 -1 -21z m4471 -24 c0 -5 -4 -10 -10 -10 -5 0 -10 5 -10 10 0 6 5 10
10 10 6 0 10 -4 10 -10z m-4304 -30 c18 0 18 -16 0 -23 -19 -8 -26 2 -25 32 1
17 3 20 6 9 2 -10 11 -18 19 -18z m4211 11 c-1 -18 -35 -37 -46 -26 -2 3 0 5
6 5 6 0 9 9 6 20 -4 15 0 20 15 20 14 0 20 -6 19 -19z m-4233 -47 c9 -3 16
-14 16 -23 0 -14 -2 -14 -10 -1 -8 13 -10 13 -10 -2 0 -9 -6 -18 -12 -21 -10
-4 -10 -7 0 -18 15 -16 16 -33 2 -24 -6 4 -17 1 -25 -5 -19 -16 -52 7 -35 24
5 5 10 18 10 28 0 10 5 18 10 18 6 0 10 7 10 15 0 16 17 19 44 9z m4237 -15
c-20 -16 -22 -22 -11 -29 8 -5 18 -6 22 -4 4 3 8 -4 8 -15 0 -12 -4 -21 -10
-21 -5 0 -10 5 -10 12 0 6 -3 9 -6 6 -5 -6 -44 27 -44 37 0 3 7 5 16 5 8 0 12
4 9 10 -4 6 1 7 11 3 12 -4 15 -3 10 5 -4 8 0 12 11 12 15 -1 14 -4 -6 -21z
m58 -71 c-2 -31 -2 -31 -6 -5 -2 15 -9 25 -14 22 -5 -4 -9 -1 -9 4 0 6 7 11
15 11 11 0 15 -10 14 -32z m-477 -80 c-7 -7 -12 -8 -12 -2 0 14 12 26 19 19 2
-3 -1 -11 -7 -17z m414 7 c-19 -15 -19 -15 5 -16 13 0 18 -3 11 -6 -6 -2 -10
-8 -8 -12 3 -4 0 -8 -7 -8 -7 0 -19 -2 -27 -4 -10 -3 -16 5 -18 23 -3 22 1 27
25 31 15 2 30 5 33 5 3 1 -4 -5 -14 -13z m-390 -30 c-26 -19 -42 -19 -26 0 7
8 20 15 29 15 13 -1 13 -3 -3 -15z m-3936 -44 c0 -6 -4 -13 -10 -16 -5 -3 -10
1 -10 9 0 9 5 16 10 16 6 0 10 -4 10 -9z m-309 -59 c-6 -10 -7 -23 -3 -27 4
-5 2 -5 -4 -2 -10 6 -11 19 -5 62 0 5 6 4 12 -2 8 -8 8 -17 0 -31z m4214 28
c3 -5 1 -10 -4 -10 -6 0 -11 5 -11 10 0 6 2 10 4 10 3 0 8 -4 11 -10z m482
-34 c-7 -21 -37 -19 -37 2 0 15 5 19 20 15 12 -3 19 -11 17 -17z m-207 -157
c0 -6 -4 -7 -10 -4 -5 3 -10 11 -10 16 0 6 5 7 10 4 6 -3 10 -11 10 -16z m-52
-9 c-15 -24 -38 -34 -50 -22 -5 5 5 16 24 25 41 21 41 21 26 -3z m77 -10 c3
-5 -1 -10 -10 -10 -9 0 -13 5 -10 10 3 6 8 10 10 10 2 0 7 -4 10 -10z m-3689
-25 c11 -23 10 -24 -7 -14 -10 5 -19 16 -19 24 0 23 14 18 26 -10z m2984 -18
c-8 -9 -10 -8 -5 6 5 12 2 17 -11 17 -16 0 -17 2 -4 10 19 12 37 -17 20 -33z
m667 11 c-3 -7 -5 -2 -5 12 0 14 2 19 5 13 2 -7 2 -19 0 -25z m-397 -8 c0 -5
-5 -10 -11 -10 -5 0 -7 5 -4 10 3 6 8 10 11 10 2 0 4 -4 4 -10z m-3870 -20 c0
-5 -4 -10 -10 -10 -5 0 -10 5 -10 10 0 6 5 10 10 10 6 0 10 -4 10 -10z m3906
-24 c0 -15 -5 -21 -10 -16 -5 5 -6 16 -3 24 9 23 15 19 13 -8z m-3202 -1 c-4
-8 -8 -15 -10 -15 -2 0 -4 7 -4 15 0 8 4 15 10 15 5 0 7 -7 4 -15z m-674 -35
c0 -5 -10 -10 -22 -10 -19 0 -20 2 -8 10 19 13 30 13 30 0z m33 -27 c-7 -2
-19 -2 -25 0 -7 3 -2 5 12 5 14 0 19 -2 13 -5z m58 -15 c58 -31 74 -48 63 -65
-21 -34 -43 -39 -59 -15 -9 12 -25 22 -36 22 -14 0 -19 7 -19 28 0 44 12 51
51 30z m4059 -56 c0 -13 -12 -22 -22 -16 -10 6 -1 24 13 24 5 0 9 -4 9 -8z
m-3835 -13 c11 -17 -1 -21 -15 -4 -8 9 -8 15 -2 15 6 0 14 -5 17 -11z m-238
-42 c-7 -18 1 -28 42 -57 31 -22 32 -24 16 -36 -15 -11 -16 -16 -5 -29 7 -8
10 -18 7 -21 -9 -10 -27 6 -27 23 0 21 -29 53 -47 53 -14 0 -19 61 -6 73 11
12 25 7 20 -6z m490 -19 c-3 -8 -6 -5 -6 6 -1 11 2 17 5 13 3 -3 4 -12 1 -19z
m103 3 c0 -6 -4 -12 -8 -15 -13 -8 -52 5 -46 15 7 12 54 12 54 0z m-298 -43
c-9 -9 -12 -7 -12 12 0 19 3 21 12 12 9 -9 9 -15 0 -24z m553 -10 c33 -15 32
-23 -2 -23 -38 0 -60 14 -42 26 17 11 14 11 44 -3z m-305 -7 c0 -12 -26 -32
-33 -25 -9 10 4 34 19 34 8 0 14 -4 14 -9z m3505 -1 c3 -5 1 -10 -4 -10 -6 0
-11 5 -11 10 0 6 2 10 4 10 3 0 8 -4 11 -10z m-4145 -25 c13 -24 12 -28 -13
-53 l-27 -27 2 53 c3 57 17 66 38 27z m4210 15 c0 -5 -4 -10 -10 -10 -5 0 -10
5 -10 10 0 6 5 10 10 10 6 0 10 -4 10 -10z m-3214 -37 c-11 -11 -19 6 -11 24
8 17 8 17 12 0 3 -10 2 -21 -1 -24z m3184 -15 c0 -11 -28 -10 -35 1 -3 6 4 9
15 8 11 -1 20 -5 20 -9z m-3595 -16 c0 -18 -20 -15 -23 4 -3 10 1 15 10 12 7
-3 13 -10 13 -16z m-608 -38 c8 14 12 15 20 4 9 -10 6 -16 -12 -24 -19 -9 -28
-7 -51 11 -17 14 -24 26 -19 34 5 10 13 6 30 -15 20 -25 23 -26 32 -10z m653
32 c0 -2 -7 -7 -16 -10 -8 -3 -12 -2 -9 4 6 10 25 14 25 6z m-220 -46 c0 -11
-7 -20 -15 -20 -8 0 -15 9 -15 20 0 11 7 20 15 20 8 0 15 -9 15 -20z m-335 0
c3 -5 17 -10 31 -10 15 0 24 -6 24 -16 0 -11 -6 -15 -19 -11 -16 4 -18 0 -15
-19 3 -17 0 -24 -12 -24 -13 0 -15 7 -12 31 3 20 0 33 -9 36 -15 6 -18 23 -4
23 6 0 13 -4 16 -10z m4138 -15 c1 -5 -6 -11 -15 -13 -11 -2 -18 3 -18 13 0
17 30 18 33 0z m67 -18 c0 -4 -5 -5 -12 -1 -7 5 -9 2 -6 -7 6 -17 -28 -24 -37
-8 -4 5 -1 9 5 9 6 0 8 5 5 10 -3 6 -1 10 5 10 6 0 8 5 5 11 -4 6 2 5 14 -3
12 -7 21 -16 21 -21z m-4110 -31 c0 -3 -4 -8 -10 -11 -5 -3 -10 -1 -10 4 0 6
5 11 10 11 6 0 10 -2 10 -4z m4096 -28 c-3 -13 -6 -36 -7 -53 l-1 -30 -7 30
c-8 36 -2 75 11 75 6 0 8 -10 4 -22z m-51 2 c3 -5 1 -10 -4 -10 -6 0 -11 5
-11 10 0 6 2 10 4 10 3 0 8 -4 11 -10z m-4180 -10 c3 -5 1 -10 -4 -10 -6 0
-11 5 -11 10 0 6 2 10 4 10 3 0 8 -4 11 -10z m74 -26 c2 -2 2 -7 -2 -10 -3 -3
-16 2 -29 11 l-23 17 25 -7 c14 -4 27 -9 29 -11z m4058 2 c-4 -13 -67 -20 -67
-7 0 12 18 18 47 17 13 -1 22 -5 20 -10z m-4020 -12 c-3 -3 -12 -4 -19 -1 -8
3 -5 6 6 6 11 1 17 -2 13 -5z m443 -64 c0 -5 -6 -10 -14 -10 -8 0 -18 5 -21
10 -3 6 3 10 14 10 12 0 21 -4 21 -10z m-177 -14 c22 -17 22 -36 -1 -36 -21 0
-42 18 -42 37 0 17 20 16 43 -1z m-10 -83 c-4 -11 -9 -11 -22 -1 -9 7 -18 13
-20 15 -1 1 0 6 3 12 10 15 45 -9 39 -26z m3970 24 c3 -8 2 -20 -3 -26 -5 -9
-7 -4 -7 13 0 29 2 32 10 13z m-4173 -43 c0 -8 -7 -14 -15 -14 -8 0 -15 9 -15
20 0 13 5 18 15 14 8 -4 15 -12 15 -20z m4210 6 c0 -5 -7 -10 -15 -10 -8 0
-15 5 -15 10 0 6 7 10 15 10 8 0 15 -4 15 -10z m-29 -20 c11 0 19 -7 19 -15 0
-13 -3 -13 -21 -3 -17 11 -22 10 -36 -7 -10 -13 -17 -16 -20 -8 -2 7 -11 9
-19 6 -8 -3 -14 1 -14 9 0 23 13 30 44 24 16 -3 37 -6 47 -6z m-169 -118 c6
-7 8 -16 4 -20 -4 -4 -12 1 -17 11 -13 22 -30 13 -22 -11 5 -13 3 -15 -7 -5
-10 10 -10 18 4 46 9 19 17 43 18 54 1 10 3 0 5 -22 3 -22 9 -46 15 -53z m18
57 c0 -11 4 -18 9 -14 15 9 19 -8 10 -34 -6 -15 -13 -21 -19 -15 -13 13 -21
84 -10 84 6 0 10 -9 10 -21z m70 1 c0 -5 -5 -10 -11 -10 -5 0 -7 5 -4 10 3 6
8 10 11 10 2 0 4 -4 4 -10z m58 -15 c0 -13 -8 -30 -16 -37 -13 -11 -15 -10 -9
5 4 10 7 27 7 38 0 10 4 19 9 19 5 0 9 -11 9 -25z m-4003 -25 c7 -12 -22 -12
-50 0 -17 7 -15 9 12 9 17 1 35 -3 38 -9z m3915 -71 c0 -6 -4 -7 -10 -4 -5 3
-10 11 -10 16 0 6 5 7 10 4 6 -3 10 -11 10 -16z m-4062 -28 c-4 -20 -38 -27
-49 -9 -6 8 -3 17 7 25 20 15 46 5 42 -16z m4050 -12 c-3 -8 -7 -3 -11 10 -4
17 -3 21 5 13 5 -5 8 -16 6 -23z m-3988 -8 c0 -6 -4 -12 -9 -15 -13 -8 -42 4
-35 15 7 12 44 12 44 0z m1170 -50 c0 -23 -16 -36 -25 -21 -9 14 1 40 15 40 5
0 10 -9 10 -19z m2487 -136 c0 -8 -4 -12 -9 -9 -4 3 -8 9 -8 15 0 5 4 9 8 9 5
0 9 -7 9 -15z m71 -10 c-8 -8 -48 8 -42 16 3 5 14 4 25 -2 12 -6 19 -12 17
-14z m-19 -19 c10 -12 8 -13 -8 -9 -12 3 -18 9 -15 14 7 12 10 11 23 -5z m-45
-100 c-3 -9 -10 -16 -15 -16 -6 0 -5 9 1 21 13 24 24 20 14 -5z m-294 -10 c0
-11 -19 -15 -25 -6 -3 5 1 10 9 10 9 0 16 -2 16 -4z m-60 -66 c0 -5 -4 -10
-10 -10 -5 0 -10 5 -10 10 0 6 5 10 10 10 6 0 10 -4 10 -10z m-440 -185 c0 -8
-9 -15 -20 -15 -25 0 -26 17 -2 23 9 3 18 5 20 6 1 0 2 -6 2 -14z m-251 -81
c-6 -8 -7 -14 -2 -14 5 0 10 -7 10 -15 0 -8 -3 -13 -5 -10 -3 3 -11 0 -18 -6
-8 -7 -14 -7 -19 1 -3 5 1 10 10 10 9 0 15 6 14 13 -3 28 2 48 11 42 8 -5 7
-11 -1 -21z m11 -95 c0 -4 -7 -6 -15 -3 -8 4 -15 10 -15 15 0 4 7 6 15 3 8 -4
15 -10 15 -15z m-553 -34 c2 -6 -8 -12 -22 -13 -24 -2 -32 8 -18 22 10 9 36 3
40 -9z m753 -9 c0 -2 -7 -7 -16 -10 -8 -3 -12 -2 -9 4 6 10 25 14 25 6z
m-1105 -27 c11 -17 -1 -21 -15 -4 -8 9 -8 15 -2 15 6 0 14 -5 17 -11z m1097
-19 c-12 -12 -22 -25 -22 -30 0 -5 -7 -7 -15 -4 -34 13 -8 38 54 53 3 1 -5 -8
-17 -19z m-1151 -27 c-12 -20 -14 -14 -5 12 4 9 9 14 11 11 3 -2 0 -13 -6 -23z
m321 2 c-2 -14 -8 -25 -12 -25 -5 0 -17 -3 -27 -6 -14 -4 -15 -4 -4 4 8 6 10
15 6 23 -5 8 -5 11 0 7 4 -4 14 -1 22 7 19 20 21 19 15 -10z m-192 5 c0 -5 -2
-10 -4 -10 -3 0 -8 5 -11 10 -3 6 -1 10 4 10 6 0 11 -4 11 -10z m122 -22 c-7
-7 -12 -20 -12 -30 0 -11 -5 -15 -15 -12 -12 5 -11 9 5 27 11 11 20 25 20 31
0 5 3 6 7 3 4 -4 1 -13 -5 -19z m85 0 c-3 -8 -6 -5 -6 6 -1 11 2 17 5 13 3 -3
4 -12 1 -19z m731 -42 c-7 -8 -15 -12 -17 -11 -5 6 10 25 20 25 5 0 4 -6 -3
-14z m-928 -35 c0 -17 -18 -21 -24 -6 -3 9 0 15 9 15 8 0 15 -4 15 -9z"/>
<path d="M5920 8479 c0 -5 5 -7 10 -4 6 3 10 8 10 11 0 2 -4 4 -10 4 -5 0 -10
-5 -10 -11z"/>
<path d="M6039 8479 c-11 -6 -10 -9 4 -15 9 -3 17 -14 17 -23 -1 -13 -3 -13
-15 3 -10 13 -19 16 -25 10 -16 -16 34 -33 54 -18 17 12 16 14 -2 32 -13 13
-24 17 -33 11z"/>
<path d="M5955 8469 c-9 -14 -2 -20 14 -10 8 6 9 11 3 15 -6 3 -14 1 -17 -5z"/>
<path d="M4800 8438 c0 -11 -6 -15 -20 -11 -11 3 -20 0 -20 -6 0 -14 47 -14
56 0 3 6 1 16 -5 22 -8 8 -11 7 -11 -5z"/>
<path d="M5840 8427 c0 -20 17 -31 22 -15 3 9 10 8 22 -5 14 -14 21 -15 32 -6
17 14 11 22 -19 24 -12 1 -30 5 -39 10 -13 5 -18 3 -18 -8z"/>
<path d="M5932 8422 c1 -9 -1 -29 -5 -44 -6 -21 -3 -30 13 -38 22 -12 27 -1 8
19 -11 11 -9 12 7 3 17 -9 21 -7 22 9 1 10 -1 18 -5 18 -19 -3 -32 2 -32 12 0
5 4 8 8 5 5 -3 9 1 9 9 0 8 -6 16 -13 19 -7 3 -12 -2 -12 -12z"/>
<path d="M6370 8420 c0 -5 5 -10 10 -10 6 0 10 5 10 10 0 6 -4 10 -10 10 -5 0
-10 -4 -10 -10z"/>
<path d="M4696 8405 c4 -8 10 -15 15 -15 4 0 6 7 3 15 -4 8 -10 15 -15 15 -4
0 -6 -7 -3 -15z"/>
<path d="M5976 8412 c-3 -5 1 -9 9 -9 8 0 12 4 9 9 -3 4 -7 8 -9 8 -2 0 -6 -4
-9 -8z"/>
<path d="M4870 8344 c0 -2 9 -8 20 -14 11 -6 20 -7 20 -2 0 6 -9 12 -20 15
-11 3 -20 3 -20 1z"/>
<path d="M5258 8342 c-23 -4 -23 -18 -2 -26 20 -8 27 -3 22 16 -1 7 -11 12
-20 10z"/>
<path d="M6593 8285 c-3 -9 -3 -19 1 -22 3 -4 6 -1 6 5 0 7 5 12 10 12 6 0 10
-10 10 -22 1 -23 1 -23 15 2 16 28 20 54 5 30 -6 -10 -10 -11 -10 -2 0 17 -29
15 -37 -3z"/>
<path d="M6060 8272 c0 -27 12 -62 20 -62 4 0 10 9 13 21 4 16 2 19 -11 15
-13 -5 -13 -3 2 9 20 15 16 27 -9 31 -8 1 -15 -5 -15 -14z"/>
<path d="M3310 8240 c0 -5 4 -10 9 -10 6 0 13 5 16 10 3 6 -1 10 -9 10 -9 0
-16 -4 -16 -10z"/>
<path d="M3276 8231 c-4 -5 -2 -12 3 -15 5 -4 12 -2 15 3 4 5 2 12 -3 15 -5 4
-12 2 -15 -3z"/>
<path d="M6938 8173 c6 -2 18 -2 25 0 6 3 1 5 -13 5 -14 0 -19 -2 -12 -5z"/>
<path d="M6990 8150 c0 -5 5 -10 10 -10 6 0 10 5 10 10 0 6 -4 10 -10 10 -5 0
-10 -4 -10 -10z"/>
<path d="M7537 8113 c-11 -10 -8 -25 3 -18 6 4 18 1 27 -7 15 -11 16 -11 10 5
-4 10 -7 21 -7 23 0 7 -26 5 -33 -3z"/>
<path d="M6945 8070 c-4 -6 4 -9 17 -7 14 1 23 -3 23 -12 0 -8 6 -16 13 -18
16 -6 15 7 -2 30 -15 19 -41 23 -51 7z"/>
<path d="M2850 8029 c0 -5 5 -7 10 -4 6 3 10 8 10 11 0 2 -4 4 -10 4 -5 0 -10
-5 -10 -11z"/>
<path d="M7080 7970 c0 -5 5 -10 10 -10 6 0 10 5 10 10 0 6 -4 10 -10 10 -5 0
-10 -4 -10 -10z"/>
<path d="M7331 7954 c-11 -13 -15 -14 -22 -2 -6 9 -9 6 -10 -12 0 -20 -2 -21
-7 -7 -7 16 -8 16 -22 0 -8 -10 -13 -29 -12 -42 3 -18 0 -22 -11 -18 -26 10
-27 -28 -1 -40 13 -6 22 -7 18 -2 -3 5 0 9 5 9 6 0 11 -6 11 -14 0 -8 14 -20
30 -28 17 -7 30 -16 30 -20 0 -5 7 -8 16 -8 8 0 13 4 10 8 -3 5 5 8 17 8 13
-1 22 5 22 14 0 8 7 18 15 22 10 5 7 7 -9 5 -16 -1 -25 4 -27 16 -1 9 2 17 7
17 5 0 9 -4 9 -10 0 -5 7 -10 15 -10 23 0 29 -27 10 -46 -9 -9 -13 -19 -10
-22 3 -4 10 0 14 7 11 18 24 -3 17 -27 -4 -13 0 -18 15 -19 16 -1 25 8 37 37
21 49 36 52 28 6 -6 -29 -4 -34 11 -31 10 2 24 4 32 4 11 1 11 4 1 16 -7 8
-16 13 -19 10 -4 -2 -8 2 -8 10 0 8 5 15 11 15 6 1 0 7 -13 14 -33 18 -64 1
-58 -31 5 -27 3 -28 -22 -6 -19 16 -19 17 11 44 l32 27 -28 -5 c-32 -7 -62 23
-44 44 6 7 9 13 7 14 -36 8 -50 4 -46 -13 6 -21 3 -22 -24 -7 -18 9 -19 13 -7
27 31 38 1 82 -31 46z m9 -79 c0 -8 6 -14 13 -12 6 1 12 -4 11 -10 -3 -39 -5
-42 -20 -36 -8 3 -13 12 -10 19 3 7 -2 17 -11 22 -9 5 -13 14 -9 21 10 16 26
14 26 -4z"/>
<path d="M7095 7949 c-4 -6 -5 -13 -2 -16 7 -7 27 6 27 18 0 12 -17 12 -25 -2z"/>
<path d="M1040 7924 c0 -8 5 -12 10 -9 6 4 8 11 5 16 -9 14 -15 11 -15 -7z"/>
<path d="M2490 7929 c0 -6 -9 -9 -19 -6 -14 3 -18 1 -14 -10 3 -7 8 -11 11 -9
3 3 11 1 18 -5 8 -7 14 -7 19 1 3 5 2 10 -4 10 -6 0 -8 7 -5 15 4 8 3 15 0 15
-3 0 -6 -5 -6 -11z"/>
<path d="M2510 7930 c0 -5 5 -10 10 -10 6 0 10 5 10 10 0 6 -4 10 -10 10 -5 0
-10 -4 -10 -10z"/>
<path d="M2560 7931 c0 -7 -4 -9 -10 -6 -17 10 -11 -4 10 -25 l21 -21 -7 28
c-8 32 -14 42 -14 24z"/>
<path d="M7005 7920 c3 -5 11 -10 16 -10 6 0 7 5 4 10 -3 6 -11 10 -16 10 -6
0 -7 -4 -4 -10z"/>
<path d="M9560 7911 c0 -6 5 -13 10 -16 6 -4 8 -11 5 -16 -4 -5 1 -9 9 -9 20
0 20 14 0 34 -18 18 -24 20 -24 7z"/>
<path d="M2420 7895 c0 -9 6 -12 15 -9 8 4 15 7 15 9 0 2 -7 5 -15 9 -9 3 -15
0 -15 -9z"/>
<path d="M2405 7859 c-4 -6 -4 -13 0 -17 4 -4 10 -1 12 6 3 6 10 9 15 6 7 -4
8 -2 4 4 -9 15 -23 15 -31 1z"/>
<path d="M2080 7850 c0 -5 5 -10 11 -10 5 0 7 5 4 10 -3 6 -8 10 -11 10 -2 0
-4 -4 -4 -10z"/>
<path d="M2305 7850 c-4 -6 -3 -16 3 -22 13 -13 23 4 13 21 -7 10 -10 10 -16
1z"/>
<path d="M2074 7791 c-1 -33 2 -39 17 -38 24 2 24 25 1 54 -17 23 -17 23 -18
-16z"/>
<path d="M9531 7815 c-1 -19 -8 -77 -11 -100 -1 -5 -6 1 -11 14 -5 14 -7 31
-5 38 3 7 2 13 -2 13 -11 0 -41 -61 -45 -90 -2 -14 -8 -24 -13 -23 -5 1 -16
-10 -24 -25 -14 -26 -15 -32 -18 -61 -1 -8 -5 -12 -8 -8 -8 7 -28 -12 -37 -35
-3 -10 -11 -18 -17 -18 -5 0 -10 -5 -10 -11 0 -7 9 -9 21 -6 20 5 20 5 4 -13
-17 -18 -12 -46 6 -35 5 4 6 -2 2 -11 -4 -11 -8 -13 -11 -6 -2 7 -14 12 -27
12 -16 0 -25 -7 -29 -25 -4 -14 -4 -30 -1 -35 6 -9 -12 -23 -33 -26 -20 -3
-28 -14 -11 -14 12 0 11 -2 -1 -11 -11 -8 -12 -12 -2 -16 6 -2 12 -11 12 -19
0 -9 5 -12 10 -9 13 8 8 -18 -5 -27 -5 -4 4 -6 20 -4 23 3 30 8 29 25 0 11 3
21 8 21 15 0 8 38 -8 44 -22 9 -6 29 19 22 36 -9 56 10 52 49 -2 19 1 35 6 35
5 0 9 -6 9 -12 0 -9 4 -8 10 2 5 8 10 11 10 5 0 -5 5 -2 11 8 6 10 7 23 2 30
-10 14 -9 51 2 90 6 21 10 25 16 15 7 -10 9 -10 9 0 0 7 4 11 8 8 5 -3 7 17 4
44 -4 47 -3 49 18 45 25 -5 40 -15 22 -15 -7 0 -12 -5 -12 -10 0 -7 6 -7 20 0
11 6 20 19 20 28 0 10 6 24 13 31 10 11 10 14 0 18 -20 7 -15 23 5 17 16 -5
16 -5 0 9 -23 19 -23 27 2 27 11 0 20 5 20 11 0 5 -4 7 -10 4 -5 -3 -10 0 -10
7 0 10 -2 10 -9 -1 -7 -11 -9 -11 -14 0 -3 9 -5 7 -6 -6z m-111 -330 c11 -13
9 -15 -11 -11 -13 3 -26 5 -29 5 -4 1 21 20 26 21 1 0 7 -7 14 -15z"/>
<path d="M2123 7764 c-6 -17 9 -37 32 -40 20 -3 19 5 -2 29 -13 15 -14 18 -3
12 8 -5 21 -17 28 -27 14 -20 32 -24 32 -7 0 5 -4 7 -10 4 -5 -3 -10 -1 -10 6
0 14 -30 38 -48 39 -7 0 -15 -7 -19 -16z"/>
<path d="M7296 7754 c-4 -9 -4 -19 -1 -22 3 -3 11 0 17 6 9 9 9 15 1 23 -7 7
-12 5 -17 -7z"/>
<path d="M7590 7751 c0 -6 4 -13 10 -16 6 -3 7 1 4 9 -7 18 -14 21 -14 7z"/>
<path d="M7670 7716 c0 -2 7 -9 15 -16 9 -7 15 -8 15 -2 0 5 -7 12 -15 16 -8
3 -15 4 -15 2z"/>
<path d="M7290 7680 c0 -5 4 -10 9 -10 5 0 11 -9 14 -21 3 -12 10 -18 16 -14
6 3 11 1 11 -6 0 -7 3 -10 6 -7 7 7 -14 50 -30 60 -15 11 -26 10 -26 -2z"/>
<path d="M2705 7670 c3 -5 8 -10 11 -10 2 0 4 5 4 10 0 6 -5 10 -11 10 -5 0
-7 -4 -4 -10z"/>
<path d="M7365 7640 c-3 -5 -1 -10 4 -10 6 0 11 5 11 10 0 6 -2 10 -4 10 -3 0
-8 -4 -11 -10z"/>
<path d="M7491 7614 c0 -11 3 -14 6 -6 3 7 2 16 -1 19 -3 4 -6 -2 -5 -13z"/>
<path d="M3106 7564 c-8 -20 8 -51 18 -35 4 6 4 11 -1 11 -4 0 -1 5 7 10 11 7
11 10 2 10 -7 0 -10 5 -7 10 3 6 2 10 -3 10 -6 0 -13 -7 -16 -16z"/>
<path d="M9447 7565 c-8 -20 -4 -29 11 -24 5 2 6 13 2 23 -6 19 -7 19 -13 1z"/>
<path d="M7520 7561 c0 -5 -18 -8 -40 -7 -22 2 -40 1 -40 -1 0 -2 12 -16 28
-30 15 -14 26 -30 24 -35 -1 -5 2 -7 8 -3 8 5 7 12 -2 23 -11 13 -10 15 4 9
12 -4 21 0 28 13 13 24 13 40 0 40 -5 0 -10 -4 -10 -9z"/>
<path d="M3160 7529 c0 -5 5 -7 10 -4 6 3 10 8 10 11 0 2 -4 4 -10 4 -5 0 -10
-5 -10 -11z"/>
<path d="M3200 7530 c0 -5 5 -10 10 -10 6 0 10 5 10 10 0 6 -4 10 -10 10 -5 0
-10 -4 -10 -10z"/>
<path d="M3087 7515 c-4 -8 -2 -17 3 -20 6 -4 10 3 10 14 0 25 -6 27 -13 6z"/>
<path d="M7570 7491 c6 -12 15 -21 20 -21 18 0 11 19 -11 30 -19 11 -20 10 -9
-9z"/>
<path d="M3170 7490 c0 -5 5 -10 10 -10 6 0 10 5 10 10 0 6 -4 10 -10 10 -5 0
-10 -4 -10 -10z"/>
<path d="M7516 7465 c-3 -8 -1 -15 4 -15 6 0 10 7 10 15 0 8 -2 15 -4 15 -2 0
-6 -7 -10 -15z"/>
<path d="M3029 7438 c7 -10 20 -18 27 -18 8 0 14 8 14 18 0 14 -2 14 -9 3 -8
-13 -12 -13 -28 0 -16 13 -17 13 -4 -3z"/>
<path d="M7740 7328 c0 -19 2 -20 10 -8 13 19 13 30 0 30 -5 0 -10 -10 -10
-22z"/>
<path d="M9255 7230 c-3 -4 -13 -6 -24 -3 -23 6 -54 -47 -37 -63 15 -13 48 -6
39 9 -4 7 -8 21 -10 32 -1 11 1 14 3 8 7 -15 34 -17 34 -3 0 6 9 10 20 10 11
0 20 4 20 8 0 11 -38 13 -45 2z"/>
<path d="M3121 7192 c0 -7 -5 -10 -11 -7 -5 3 -10 1 -10 -4 0 -6 5 -11 11 -11
6 0 8 -9 4 -22 -5 -20 -5 -21 5 -5 6 10 9 28 7 40 -2 12 -5 16 -6 9z"/>
<path d="M9145 7110 c-3 -5 3 -10 14 -10 12 0 21 -5 21 -12 0 -6 -3 -8 -7 -5
-8 9 -36 -31 -29 -42 4 -5 -3 -7 -14 -4 -11 3 -20 0 -20 -6 0 -14 57 -15 65
-1 3 6 2 10 -4 10 -6 0 -8 7 -5 15 4 8 10 15 16 15 5 0 6 -6 2 -12 -5 -10 -4
-10 6 -1 11 10 10 17 -4 37 -17 27 -31 32 -41 16z"/>
<path d="M3257 7049 c7 -7 15 -10 18 -7 3 3 -2 9 -12 12 -14 6 -15 5 -6 -5z"/>
<path d="M9123 6995 c1 -11 7 -23 12 -27 6 -4 -2 -8 -17 -8 -25 0 -27 -3 -26
-35 1 -21 6 -35 14 -35 21 0 44 12 44 22 0 6 -6 5 -15 -2 -9 -8 -15 -9 -15 -2
0 6 5 14 11 18 8 4 7 9 -2 15 -11 7 -11 9 2 9 9 0 20 7 23 16 8 22 8 24 -8 24
-8 0 -17 6 -20 13 -3 6 -4 3 -3 -8z"/>
<path d="M7846 6946 c3 -9 11 -16 16 -16 13 0 5 23 -10 28 -7 2 -10 -2 -6 -12z"/>
<path d="M7886 6934 c-9 -24 -7 -27 9 -10 17 17 19 26 6 26 -5 0 -12 -7 -15
-16z"/>
<path d="M3160 6661 c0 -12 6 -21 16 -21 9 0 14 7 12 17 -5 25 -28 28 -28 4z"/>
<path d="M9025 6651 c-3 -5 -1 -12 4 -15 5 -3 11 1 15 9 6 16 -9 21 -19 6z"/>
<path d="M7830 6634 c0 -8 5 -12 10 -9 6 4 8 11 5 16 -9 14 -15 11 -15 -7z"/>
<path d="M7633 6466 c3 -8 1 -17 -6 -20 -7 -2 -2 -5 11 -5 12 -1 22 1 22 3 0
14 -14 36 -22 36 -6 0 -8 -6 -5 -14z"/>
<path d="M7625 6410 c3 -5 11 -10 16 -10 6 0 7 5 4 10 -3 6 -11 10 -16 10 -6
0 -7 -4 -4 -10z"/>
<path d="M7644 6358 c-5 -8 -2 -9 9 -5 12 4 17 1 17 -9 0 -10 -6 -14 -15 -11
-8 4 -17 2 -20 -3 -4 -6 -1 -10 5 -10 13 0 57 -40 44 -40 -5 0 -1 -5 9 -11 9
-6 15 -14 13 -18 -3 -4 9 -16 26 -26 27 -16 30 -16 25 -2 -4 11 -2 14 7 11 8
-3 17 0 21 6 3 6 3 10 -2 9 -21 -4 -33 2 -33 16 0 8 -6 15 -13 15 -21 0 -71
46 -59 54 14 9 4 36 -13 36 -8 0 -17 -5 -21 -12z"/>
<path d="M7745 6339 c-4 -6 -5 -12 -2 -15 2 -3 7 2 10 11 7 17 1 20 -8 4z"/>
<path d="M1 6223 c1 -65 4 -120 8 -123 3 -3 14 -22 23 -42 16 -35 48 -53 48
-26 0 6 9 3 20 -7 22 -20 26 -45 10 -61 -11 -11 -3 -44 10 -44 4 0 10 7 14 15
3 8 10 15 16 15 5 0 10 -7 10 -15 0 -8 -5 -14 -11 -12 -6 1 -14 -4 -16 -10 -3
-8 4 -13 17 -13 16 0 20 -4 16 -15 -4 -10 1 -15 14 -15 13 0 20 7 20 20 0 11
-4 20 -9 20 -4 0 -14 20 -21 45 -7 24 -16 42 -21 40 -4 -3 -6 6 -3 20 2 14 0
25 -6 25 -5 0 -10 9 -10 21 0 11 -4 17 -10 14 -5 -3 -7 0 -4 8 3 8 -2 20 -10
27 -9 7 -13 16 -10 21 10 16 -7 49 -25 49 -14 0 -17 6 -13 25 2 15 0 25 -7 25
-6 0 -11 11 -11 25 0 24 -25 85 -35 85 -2 0 -4 -53 -4 -117z m41 -79 c-3 -18
-7 -22 -13 -13 -4 7 -3 19 3 26 15 18 16 17 10 -13z m40 -56 c-7 -7 -12 -8
-12 -2 0 14 12 26 19 19 2 -3 -1 -11 -7 -17z m-22 -18 c0 -5 -5 -10 -11 -10
-5 0 -7 5 -4 10 3 6 8 10 11 10 2 0 4 -4 4 -10z"/>
<path d="M7620 6299 c-19 -8 -21 -12 -11 -19 18 -11 41 -2 41 16 0 8 -1 14 -2
13 -2 0 -14 -5 -28 -10z"/>
<path d="M8800 6288 c0 -6 -10 -22 -22 -35 -19 -21 -20 -23 -4 -23 12 0 16 -5
12 -16 -4 -11 -1 -14 13 -9 21 6 38 -20 18 -29 -7 -3 -1 -3 11 0 21 5 23 3 17
-18 -3 -12 -11 -34 -18 -47 -9 -18 -9 -25 3 -35 8 -6 14 -21 12 -32 -4 -26 36
-41 45 -18 3 8 12 13 19 10 17 -6 17 -5 4 28 -7 19 -6 25 2 23 7 -1 13 14 15
36 2 25 -1 37 -9 37 -9 0 -8 3 2 10 12 8 12 10 1 10 -8 0 -12 3 -8 6 3 3 1 18
-4 34 -11 31 -63 62 -88 52 -14 -5 -14 -3 -2 11 12 15 11 17 -3 17 -9 0 -16
-5 -16 -12z"/>
<path d="M3021 6264 c0 -11 3 -14 6 -6 3 7 2 16 -1 19 -3 4 -6 -2 -5 -13z"/>
<path d="M7467 6233 c-9 -14 23 -27 37 -13 5 5 6 13 2 17 -4 4 -11 1 -15 -6
-7 -11 -9 -11 -13 0 -3 9 -6 10 -11 2z"/>
<path d="M7485 6170 c3 -5 12 -7 20 -3 21 7 19 13 -6 13 -11 0 -18 -4 -14 -10z"/>
<path d="M7666 6145 c4 -8 7 -15 9 -15 2 0 5 7 9 15 3 9 0 15 -9 15 -9 0 -12
-6 -9 -15z"/>
<path d="M8785 6150 c3 -5 8 -10 11 -10 2 0 4 5 4 10 0 6 -5 10 -11 10 -5 0
-7 -4 -4 -10z"/>
<path d="M3046 6111 c-4 -7 -5 -15 -2 -18 9 -9 19 4 14 18 -4 11 -6 11 -12 0z"/>
<path d="M7710 6030 c0 -5 5 -10 10 -10 6 0 10 5 10 10 0 6 -4 10 -10 10 -5 0
-10 -4 -10 -10z"/>
<path d="M80 6001 c0 -11 4 -23 10 -26 6 -4 9 5 8 19 -3 30 -18 35 -18 7z"/>
<path d="M8884 5972 c-5 -18 -9 -20 -20 -11 -11 9 -14 6 -14 -14 0 -17 7 -28
20 -32 11 -3 20 -13 20 -21 0 -8 5 -13 12 -11 6 1 14 -6 16 -16 2 -10 -2 -16
-8 -15 -15 4 -20 -62 -7 -79 6 -9 6 -13 -1 -13 -14 0 10 -72 26 -78 7 -2 17 9
24 25 13 31 20 183 9 183 -12 0 -36 52 -33 71 2 9 -2 20 -8 24 -5 3 -10 0 -10
-7 0 -9 -3 -9 -10 2 -8 12 -11 11 -16 -8z"/>
<path d="M3102 5946 c1 -10 8 -17 13 -17 15 1 12 24 -3 29 -9 3 -13 -2 -10
-12z"/>
<path d="M185 5840 c-11 -5 -15 -9 -8 -9 7 -1 10 -8 7 -16 -4 -8 -1 -22 6 -30
6 -8 9 -19 5 -25 -4 -6 5 -10 23 -10 29 0 51 24 32 35 -5 3 -7 12 -4 19 3 7
-2 16 -11 20 -9 3 -13 10 -10 16 7 12 -12 12 -40 0z"/>
<path d="M3130 5755 c9 -9 24 -12 38 -8 29 7 10 23 -28 23 -21 0 -23 -2 -10
-15z"/>
<path d="M7600 5743 c0 -13 5 -23 10 -23 13 0 13 11 0 30 -8 12 -10 11 -10 -7z"/>
<path d="M7637 5733 c-12 -12 -7 -23 11 -24 10 0 12 -3 5 -6 -21 -8 -15 -20
10 -18 12 1 22 7 22 15 0 15 -39 43 -48 33z"/>
<path d="M7606 5688 c3 -4 9 -8 15 -8 5 0 9 4 9 8 0 5 -7 9 -15 9 -8 0 -12 -4
-9 -9z"/>
<path d="M8920 5656 c0 -9 7 -16 16 -16 9 0 14 5 12 12 -6 18 -28 21 -28 4z"/>
<path d="M7680 5620 c0 -5 5 -10 10 -10 6 0 10 5 10 10 0 6 -4 10 -10 10 -5 0
-10 -4 -10 -10z"/>
<path d="M7688 5588 c9 -9 15 -9 24 0 9 9 7 12 -12 12 -19 0 -21 -3 -12 -12z"/>
<path d="M8957 5573 c-10 -10 -8 -23 4 -23 5 0 7 5 3 12 -5 8 -2 9 10 5 10 -4
15 -3 11 3 -7 12 -19 13 -28 3z"/>
<path d="M318 5558 c6 -6 18 -8 28 -6 14 3 12 5 -9 10 -19 3 -25 2 -19 -4z"/>
<path d="M8960 5519 c0 -5 5 -7 10 -4 6 3 10 8 10 11 0 2 -4 4 -10 4 -5 0 -10
-5 -10 -11z"/>
<path d="M312 5506 c7 -7 19 -11 25 -9 22 9 14 23 -12 23 -21 0 -24 -2 -13
-14z"/>
<path d="M345 5480 c-10 -16 7 -31 23 -21 10 6 10 10 -2 20 -10 9 -16 9 -21 1z"/>
<path d="M3217 5440 c-9 -11 -17 -28 -17 -37 0 -14 5 -12 27 10 18 18 24 30
17 37 -6 6 -15 3 -27 -10z"/>
<path d="M310 5447 c0 -5 12 -19 27 -33 14 -13 23 -27 20 -30 -4 -4 5 -26 18
-49 14 -23 25 -50 25 -61 0 -16 2 -17 10 -4 6 10 10 11 10 3 0 -7 5 -13 11
-13 6 0 8 9 4 23 -4 14 -3 18 3 9 11 -17 42 -5 42 17 0 14 -2 14 -10 1 -8 -13
-10 -12 -10 3 0 10 -4 16 -9 13 -10 -6 -35 20 -36 38 -2 24 -18 46 -29 39 -7
-4 -7 -2 1 7 9 10 8 16 -4 28 -14 14 -17 14 -28 -1 -11 -15 -13 -15 -28 1 -9
9 -17 13 -17 9z m88 -92 c-3 -3 -9 2 -12 12 -6 14 -5 15 5 6 7 -7 10 -15 7
-18z"/>
<path d="M3640 5370 c-6 -11 -7 -21 -3 -21 46 -7 63 -6 63 2 0 5 -4 9 -10 9
-5 0 -10 7 -10 15 0 22 -27 18 -40 -5z"/>
<path d="M3235 5360 c-3 -5 1 -10 9 -10 9 0 16 5 16 10 0 6 -4 10 -9 10 -6 0
-13 -4 -16 -10z"/>
<path d="M9043 5340 c-10 -15 -8 -19 14 -25 32 -8 51 8 32 27 -21 19 -34 19
-46 -2z"/>
<path d="M1545 5319 c-10 -15 3 -25 16 -12 7 7 7 13 1 17 -6 3 -14 1 -17 -5z"/>
<path d="M3283 5292 c1 -12 5 -22 9 -22 4 0 8 -7 8 -15 0 -8 9 -15 20 -15 25
0 26 -16 3 -29 -17 -10 -17 -10 -1 -11 24 0 88 40 88 55 0 13 -48 30 -58 20
-3 -3 0 -5 6 -5 7 0 12 -7 12 -15 0 -24 -18 -17 -55 22 -29 31 -34 33 -32 15z"/>
<path d="M7610 5290 c0 -5 5 -10 11 -10 5 0 7 5 4 10 -3 6 -8 10 -11 10 -2 0
-4 -4 -4 -10z"/>
<path d="M9080 5290 c0 -5 -6 -7 -14 -4 -11 4 -13 0 -9 -17 5 -20 7 -20 18 -6
7 9 15 14 19 10 4 -4 4 0 0 10 -7 19 -14 22 -14 7z"/>
<path d="M1385 5251 c-6 -11 9 -23 19 -14 9 9 7 23 -3 23 -6 0 -12 -4 -16 -9z"/>
<path d="M3475 5241 c-7 -12 12 -24 25 -16 11 7 4 25 -10 25 -5 0 -11 -4 -15
-9z"/>
<path d="M9090 5242 c0 -7 -4 -11 -9 -7 -6 3 -15 -4 -21 -15 -13 -24 -10 -24
23 -7 19 10 23 17 16 28 -6 11 -9 11 -9 1z"/>
<path d="M7490 5220 c0 -5 5 -10 10 -10 6 0 10 5 10 10 0 6 -4 10 -10 10 -5 0
-10 -4 -10 -10z"/>
<path d="M1397 5213 c-9 -9 12 -33 29 -33 19 0 18 26 -2 34 -19 7 -19 7 -27
-1z"/>
<path d="M3398 5214 c-11 -10 3 -34 19 -34 8 0 13 7 11 17 -3 18 -20 27 -30
17z"/>
<path d="M1450 5200 c0 -17 37 -53 43 -42 11 17 -5 52 -24 52 -11 0 -19 -5
-19 -10z"/>
<path d="M480 5183 c0 -13 5 -23 10 -23 13 0 13 11 0 30 -8 12 -10 11 -10 -7z"/>
<path d="M9085 5190 c-3 -6 -3 -20 1 -33 4 -12 6 -37 6 -55 -1 -22 2 -31 10
-26 7 4 8 3 4 -4 -5 -8 -13 -9 -25 -3 -12 7 -18 6 -18 -2 0 -7 -4 -19 -7 -28
-4 -9 -1 -23 7 -31 8 -8 18 -28 21 -45 10 -45 31 -60 46 -34 6 12 17 21 24 21
14 0 15 23 2 53 -5 9 -5 24 -2 33 5 12 2 15 -10 10 -13 -5 -15 0 -9 36 4 27 3
38 -3 30 -16 -23 -34 12 -26 52 6 35 -6 50 -21 26z m30 -190 c3 -5 2 -10 -4
-10 -5 0 -13 5 -16 10 -3 6 -2 10 4 10 5 0 13 -4 16 -10z m15 -30 c-24 -15
-37 -11 -16 5 11 8 22 12 25 9 3 -3 -1 -9 -9 -14z"/>
<path d="M7485 5180 c-3 -5 -1 -10 4 -10 6 0 11 5 11 10 0 6 -2 10 -4 10 -3 0
-8 -4 -11 -10z"/>
<path d="M3497 5158 c-4 -10 -9 -25 -12 -33 -2 -8 -9 -15 -15 -15 -6 0 -8 5
-5 10 10 17 -11 11 -33 -9 -26 -22 -31 -74 -7 -65 9 4 15 0 15 -9 0 -22 31
-30 45 -11 6 9 18 15 25 12 10 -3 9 -7 -3 -19 -9 -10 -13 -26 -10 -42 4 -21
10 -26 33 -24 16 1 28 4 28 7 -1 21 5 32 27 42 22 10 25 16 19 47 -8 45 -26
65 -61 66 -23 0 -29 6 -34 30 -5 23 -7 26 -12 13z"/>
<path d="M1270 5119 c0 -54 -18 -76 -48 -60 -11 6 -23 16 -26 23 -4 10 -8 10
-18 -2 -7 -8 -22 -20 -33 -26 -10 -6 -21 -16 -23 -22 -4 -14 34 -16 43 -2 3 6
12 10 19 10 23 0 6 -47 -22 -61 -21 -10 -23 -13 -10 -16 9 -3 20 -13 23 -24 4
-10 10 -19 15 -19 12 0 33 -67 25 -80 -3 -5 -13 -10 -21 -10 -17 0 -19 -31 -2
-48 18 -18 48 -15 54 6 3 9 10 25 15 35 7 13 5 22 -6 33 -26 26 -19 45 18 43
50 -3 75 9 94 48 16 35 16 36 -7 55 -28 23 -34 45 -19 75 15 28 4 57 -17 49
-10 -4 -23 3 -35 16 l-18 23 -1 -46z m-7 -129 c8 -36 0 -60 -18 -60 -17 0 -21
6 -29 53 -6 34 -5 37 17 37 19 0 26 -7 30 -30z"/>
<path d="M9060 5124 c0 -8 5 -12 10 -9 6 4 8 11 5 16 -9 14 -15 11 -15 -7z"/>
<path d="M501 5104 c0 -11 3 -14 6 -6 3 7 2 16 -1 19 -3 4 -6 -2 -5 -13z"/>
<path d="M482 5013 c-36 -42 -39 -53 -16 -53 14 0 14 -1 0 -16 -16 -16 -12
-39 5 -29 5 4 10 3 10 -2 1 -4 3 -17 5 -28 8 -51 3 -133 -10 -154 -6 -9 -3
-18 9 -28 11 -7 13 -13 6 -13 -7 0 -9 -4 -6 -10 13 -22 13 -49 -1 -54 -9 -3
-12 -11 -8 -18 4 -6 7 -35 6 -62 -2 -28 2 -58 8 -66 9 -12 10 -10 5 10 -5 20
-4 22 5 8 11 -18 3 -51 -11 -42 -13 8 -11 -10 3 -24 8 -8 8 -15 -2 -27 -12
-14 -11 -18 1 -26 8 -5 9 -9 3 -9 -15 0 -15 -56 0 -69 7 -6 12 -25 10 -43 -1
-18 4 -43 12 -55 13 -21 13 -23 -2 -23 -10 0 -14 -3 -11 -6 3 -4 2 -15 -4 -25
-8 -15 -6 -17 8 -12 16 6 16 4 -1 -15 -19 -22 -19 -23 1 -42 12 -10 24 -16 27
-13 3 4 6 -3 6 -15 0 -12 3 -22 8 -22 4 0 7 -19 8 -43 2 -69 9 -117 17 -117 4
0 7 -7 7 -15 0 -8 -4 -15 -10 -15 -15 0 -12 -36 4 -53 8 -8 12 -24 9 -40 -3
-16 -1 -27 6 -27 6 0 11 -5 11 -11 0 -5 -4 -7 -10 -4 -15 9 -12 -7 5 -29 8
-11 15 -30 15 -41 0 -13 10 -27 23 -34 l22 -12 -22 5 c-13 2 -23 2 -23 0 0
-14 30 -72 45 -87 16 -17 16 -19 1 -30 -15 -11 -15 -15 -3 -31 14 -19 16 -18
52 17 40 38 42 67 5 67 -11 0 -20 5 -20 10 0 6 5 10 10 10 6 0 10 9 10 19 0
11 6 22 13 24 6 3 2 6 -10 6 -15 1 -21 6 -17 15 3 7 -3 16 -13 20 -10 3 -24 9
-32 12 -9 5 -11 3 -6 -6 5 -9 4 -11 -3 -6 -7 4 -12 17 -12 30 0 19 4 22 30 18
17 -2 30 -10 30 -18 0 -16 35 -54 50 -54 23 0 9 52 -22 82 -21 19 -29 32 -20
35 20 8 14 25 -7 18 -13 -4 -20 0 -24 14 -6 24 2 34 17 22 7 -6 16 -4 24 5 7
8 9 14 4 14 -16 0 -60 44 -66 67 -8 25 11 42 20 19 10 -26 24 -18 19 12 -2 15
-7 44 -10 65 -5 31 -10 37 -30 37 -14 0 -25 5 -25 11 0 5 5 7 10 4 11 -7 13 6
4 29 -3 9 -11 16 -18 16 -6 0 -13 10 -13 22 -1 13 1 18 5 13 4 -6 16 -17 27
-25 14 -9 16 -10 8 -1 -9 11 -8 17 3 28 11 11 12 19 4 28 -6 7 -8 24 -5 37 4
16 -2 31 -20 51 -19 20 -24 33 -20 49 6 16 9 18 16 7 5 -9 8 -1 7 24 -1 22 -6
37 -14 37 -15 0 -44 27 -44 42 0 6 10 8 21 5 22 -6 49 12 49 32 0 6 -7 11 -15
11 -8 0 -15 8 -16 18 0 14 -2 14 -9 -3 -8 -18 -9 -17 -9 8 -1 16 5 30 14 33
12 5 12 8 -2 22 -15 16 -15 17 0 20 9 2 17 8 17 13 0 6 -15 7 -37 3 -35 -7
-37 -6 -24 10 9 11 22 15 37 12 13 -4 26 -2 29 4 3 5 0 8 -7 5 -19 -7 -15 195
4 206 9 6 7 13 -10 32 -14 15 -18 27 -12 33 11 11 -26 119 -60 177 -12 20 -23
37 -24 37 -1 0 -16 -17 -34 -37z m37 -265 c0 -31 -3 -37 -8 -24 -7 18 -3 66 5
66 2 0 4 -19 3 -42z m36 -248 c3 -5 1 -10 -4 -10 -6 0 -11 5 -11 10 0 6 2 10
4 10 3 0 8 -4 11 -10z m35 -370 c0 -5 -5 -10 -11 -10 -5 0 -7 5 -4 10 3 6 8
10 11 10 2 0 4 -4 4 -10z m-10 -74 c0 -3 -4 -8 -10 -11 -5 -3 -10 -1 -10 4 0
6 5 11 10 11 6 0 10 -2 10 -4z m20 -123 c0 -10 -4 -14 -8 -8 -4 6 -11 13 -16
18 -5 4 -2 7 7 7 10 0 17 -8 17 -17z m70 -123 c0 -5 -5 -10 -11 -10 -5 0 -7 5
-4 10 3 6 8 10 11 10 2 0 4 -4 4 -10z"/>
<path d="M3460 4970 c0 -6 7 -10 15 -10 8 0 15 2 15 4 0 2 -7 6 -15 10 -8 3
-15 1 -15 -4z"/>
<path d="M3735 4970 c-10 -17 12 -37 25 -24 8 8 6 15 -4 23 -10 9 -16 9 -21 1z"/>
<path d="M1041 4958 c0 -9 -4 -25 -7 -35 -5 -14 -4 -15 5 -7 7 7 11 22 8 35
-2 13 -5 16 -6 7z"/>
<path d="M1090 4935 c0 -14 5 -25 10 -25 6 0 10 11 10 25 0 14 -4 25 -10 25
-5 0 -10 -11 -10 -25z"/>
<path d="M8448 4935 c2 -14 8 -25 13 -25 10 0 11 12 3 34 -10 25 -22 19 -16
-9z"/>
<path d="M3662 4928 c6 -18 28 -21 28 -4 0 9 -7 16 -16 16 -9 0 -14 -5 -12
-12z"/>
<path d="M1136 4903 c-26 -13 -27 -17 -12 -25 9 -5 25 -7 35 -3 14 4 20 0 23
-12 3 -15 5 -14 10 5 4 15 2 22 -8 22 -8 0 -11 6 -8 15 8 19 -3 18 -40 -2z"/>
<path d="M8420 4899 c0 -5 5 -7 10 -4 6 3 10 8 10 11 0 2 -4 4 -10 4 -5 0 -10
-5 -10 -11z"/>
<path d="M8564 4895 c8 -8 16 -15 19 -15 2 0 4 7 4 15 0 8 -9 15 -19 15 -17 0
-18 -2 -4 -15z"/>
<path d="M6850 4856 c0 -2 7 -6 15 -10 8 -3 15 -1 15 4 0 6 -7 10 -15 10 -8 0
-15 -2 -15 -4z"/>
<path d="M6900 4819 c0 -11 5 -17 10 -14 6 4 8 10 5 15 -3 4 1 11 7 13 8 3 6
6 -4 6 -12 1 -18 -6 -18 -20z"/>
<path d="M8370 4820 c0 -5 5 -10 10 -10 6 0 10 5 10 10 0 6 -4 10 -10 10 -5 0
-10 -4 -10 -10z"/>
<path d="M936 4811 c-4 -7 -5 -15 -2 -18 9 -9 19 4 14 18 -4 11 -6 11 -12 0z"/>
<path d="M8891 4784 c0 -11 3 -14 6 -6 3 7 2 16 -1 19 -3 4 -6 -2 -5 -13z"/>
<path d="M6520 4762 c0 -15 4 -20 16 -15 9 3 12 9 7 12 -4 3 -11 10 -15 15 -5
5 -8 0 -8 -12z"/>
<path d="M9120 4760 c0 -5 5 -10 11 -10 5 0 7 5 4 10 -3 6 -8 10 -11 10 -2 0
-4 -4 -4 -10z"/>
<path d="M8530 4749 c0 -5 5 -7 10 -4 6 3 10 8 10 11 0 2 -4 4 -10 4 -5 0 -10
-5 -10 -11z"/>
<path d="M1151 4734 c0 -11 3 -14 6 -6 3 7 2 16 -1 19 -3 4 -6 -2 -5 -13z"/>
<path d="M1050 4710 c0 -10 7 -23 16 -28 12 -7 14 -14 7 -27 -7 -12 -13 -14
-17 -6 -12 19 -31 12 -49 -18 -17 -30 -22 -72 -10 -85 4 -4 14 8 23 26 15 31
18 33 59 30 39 -3 43 -2 36 15 -4 10 -10 27 -13 38 -3 11 -12 26 -19 33 -7 7
-13 20 -13 28 0 8 -4 14 -10 14 -5 0 -10 -9 -10 -20z"/>
<path d="M8931 4694 c0 -11 3 -14 6 -6 3 7 2 16 -1 19 -3 4 -6 -2 -5 -13z"/>
<path d="M1120 4680 c0 -5 4 -10 9 -10 6 0 13 5 16 10 3 6 -1 10 -9 10 -9 0
-16 -4 -16 -10z"/>
<path d="M8900 4664 c0 -8 5 -12 10 -9 6 4 8 11 5 16 -9 14 -15 11 -15 -7z"/>
<path d="M5925 4650 c3 -5 8 -10 11 -10 2 0 4 5 4 10 0 6 -5 10 -11 10 -5 0
-7 -4 -4 -10z"/>
<path d="M6447 4565 c-8 -20 -4 -29 11 -24 5 2 6 13 2 23 -6 19 -7 19 -13 1z"/>
<path d="M1056 4545 c-9 -23 -8 -25 9 -25 17 0 19 9 6 28 -7 11 -10 10 -15 -3z"/>
<path d="M6094 4552 c-12 -8 -18 -72 -7 -72 5 0 14 14 22 31 13 31 5 55 -15
41z"/>
<path d="M6160 4520 c0 -11 2 -20 4 -20 2 0 6 9 9 20 3 11 1 20 -4 20 -5 0 -9
-9 -9 -20z"/>
<path d="M8977 4493 c-4 -3 -7 -11 -7 -17 0 -6 5 -5 12 2 6 6 9 14 7 17 -3 3
-9 2 -12 -2z"/>
<path d="M6102 4400 c-18 -29 -15 -38 4 -12 9 13 14 25 12 27 -2 2 -9 -5 -16
-15z"/>
<path d="M9228 4362 c8 -5 13 -12 13 -16 -3 -17 1 -22 21 -31 29 -13 35 -42
11 -48 -10 -3 -3 -5 15 -6 17 0 32 4 32 9 0 6 -4 10 -10 10 -5 0 -10 6 -10 13
0 6 -13 21 -29 32 -16 10 -29 23 -28 28 1 5 -5 12 -13 14 -12 4 -12 3 -2 -5z"/>
<path d="M9260 4361 c0 -6 5 -13 10 -16 6 -3 10 1 10 9 0 9 -4 16 -10 16 -5 0
-10 -4 -10 -9z"/>
<path d="M6095 4330 c-3 -5 -1 -10 4 -10 6 0 11 5 11 10 0 6 -2 10 -4 10 -3 0
-8 -4 -11 -10z"/>
<path d="M5388 4263 c6 -2 18 -2 25 0 6 3 1 5 -13 5 -14 0 -19 -2 -12 -5z"/>
<path d="M9210 4261 c0 -17 15 -19 28 -5 11 12 9 14 -8 14 -11 0 -20 -4 -20
-9z"/>
<path d="M9246 4224 c-38 -26 -44 -39 -23 -47 7 -4 6 -6 -4 -6 -14 -1 -17 -13
-15 -78 1 -46 6 -77 12 -76 6 1 8 -11 6 -27 -2 -17 -1 -38 3 -47 5 -10 7 -21
7 -25 -1 -5 2 -8 6 -8 4 0 8 -9 9 -20 1 -13 -2 -18 -9 -14 -13 8 -2 -12 20
-38 11 -13 13 -30 9 -63 -5 -35 -3 -47 8 -51 8 -4 15 -17 15 -30 0 -13 5 -24
10 -24 6 0 10 -7 10 -15 0 -8 9 -24 19 -34 11 -11 16 -22 13 -26 -4 -3 0 -10
8 -15 12 -8 9 -10 -10 -10 -16 0 -21 -3 -12 -8 7 -5 13 -29 14 -55 1 -26 6
-47 10 -47 17 0 28 -51 17 -72 -9 -17 -9 -20 3 -16 10 4 15 -3 16 -26 1 -17 7
-53 12 -81 6 -27 11 -61 12 -74 2 -17 12 -27 33 -34 17 -6 33 -15 37 -21 4 -6
8 -8 9 -3 1 4 2 10 3 15 1 4 5 13 9 20 10 15 5 172 -5 172 -14 0 -9 40 5 41 6
0 2 5 -11 11 -12 6 -22 18 -21 27 3 33 -2 49 -25 84 -15 22 -20 39 -15 44 6 6
2 19 -10 34 -11 13 -20 18 -21 12 0 -7 -8 -13 -17 -12 -15 0 -14 3 5 16 25 18
30 53 6 53 -12 0 -14 7 -9 31 6 24 2 35 -16 52 -21 19 -21 21 -4 27 17 6 16 8
-6 23 l-24 17 31 -3 31 -4 -10 36 c-6 20 -17 43 -24 52 -7 9 -10 19 -6 23 17
17 21 128 5 134 -7 2 -9 10 -4 20 10 24 8 53 -6 78 -6 12 -8 24 -5 28 3 3 2 6
-4 6 -6 0 -10 17 -9 39 2 35 0 38 -25 39 -14 0 -43 -11 -63 -24z m69 6 c3 -5
1 -10 -4 -10 -6 0 -11 5 -11 10 0 6 2 10 4 10 3 0 8 -4 11 -10z m-79 -105 c1
-9 -2 -15 -8 -13 -6 2 -13 15 -15 28 -3 19 -1 22 9 12 6 -6 13 -19 14 -27z"/>
<path d="M5470 4229 c0 -5 10 -9 22 -9 12 0 18 3 14 7 -10 11 -36 12 -36 2z"/>
<path d="M8551 4111 c-7 -5 -30 -7 -50 -4 -43 6 -146 -19 -218 -53 -49 -23
-83 -24 -83 -2 0 6 -7 8 -15 4 -8 -3 -15 -2 -15 3 0 14 -102 0 -145 -19 -22
-10 -47 -21 -55 -24 -8 -4 -28 -15 -45 -26 -16 -11 -37 -23 -45 -26 -8 -4 -26
-17 -40 -29 -14 -12 -45 -28 -70 -35 -25 -7 -56 -23 -70 -36 -14 -12 -41 -30
-60 -39 -19 -10 -50 -31 -69 -47 -19 -17 -47 -35 -63 -40 -15 -5 -28 -16 -28
-23 0 -7 -11 -20 -25 -29 -29 -19 -31 -34 -10 -62 15 -19 16 -19 13 1 -2 15 2
19 17 18 12 -1 26 7 34 19 7 11 8 17 2 13 -6 -3 -11 -1 -11 4 0 6 9 11 19 11
11 0 23 5 26 10 9 14 42 12 49 -2 3 -7 3 -3 0 10 -6 24 20 33 29 9 7 -18 -2
-31 -30 -46 -28 -15 -33 -14 -33 4 0 26 -15 16 -16 -10 -3 -42 37 -32 85 22
22 26 41 50 41 54 0 12 83 36 112 32 19 -2 32 3 45 21 14 17 33 26 64 30 24 3
69 10 99 16 58 12 102 13 134 4 13 -5 16 -3 11 7 -6 9 -3 11 8 6 10 -3 17 -3
17 1 0 11 71 9 88 -1 8 -5 19 -4 28 3 9 8 30 11 59 7 24 -4 46 -3 49 2 3 5 16
7 28 5 13 -1 48 -6 78 -9 30 -4 58 -9 61 -11 4 -2 29 0 55 5 35 7 51 6 56 -2
5 -8 8 -7 8 3 0 9 3 11 8 4 10 -15 42 -25 42 -14 0 6 -6 10 -12 10 -7 0 -4 7
7 16 18 13 20 13 27 -7 11 -28 32 -19 36 14 2 15 8 27 13 27 6 0 7 -5 3 -11
-4 -8 0 -8 15 0 11 7 21 8 21 4 1 -4 9 2 20 15 10 13 17 29 13 37 -8 21 -26 6
-20 -16 7 -27 -8 -24 -20 4 -9 19 -8 26 6 35 14 10 14 12 1 21 -8 6 -32 13
-53 17 -47 8 -78 35 -66 57 6 10 5 18 -1 22 -14 9 -32 -4 -24 -17 5 -8 1 -9
-10 -5 -10 4 -20 7 -23 7 -3 0 0 7 7 15 7 9 10 18 6 22 -3 3 -6 1 -6 -6 0 -7
-9 -9 -25 -6 -14 3 -35 7 -48 10 -12 2 -28 0 -36 -4z m149 -85 c0 -3 -4 -8
-10 -11 -5 -3 -10 -1 -10 4 0 6 5 11 10 11 6 0 10 -2 10 -4z m-1050 -300 c0
-3 -4 -8 -10 -11 -5 -3 -10 -1 -10 4 0 6 5 11 10 11 6 0 10 -2 10 -4z"/>
<path d="M658 3663 c7 -3 16 -2 19 1 4 3 -2 6 -13 5 -11 0 -14 -3 -6 -6z"/>
<path d="M7510 3641 c0 -5 5 -13 10 -16 6 -3 10 -2 10 4 0 5 -4 13 -10 16 -5
3 -10 2 -10 -4z"/>
<path d="M730 3560 c0 -5 5 -10 11 -10 5 0 7 5 4 10 -3 6 -8 10 -11 10 -2 0
-4 -4 -4 -10z"/>
<path d="M753 3541 c-9 -14 -9 -22 -2 -27 15 -9 21 1 17 26 -3 21 -3 21 -15 1z"/>
<path d="M770 3490 c0 -5 -7 -10 -15 -10 -8 0 -15 -9 -15 -21 0 -11 4 -18 9
-14 5 3 12 1 15 -4 7 -10 -19 -9 -30 1 -3 4 -17 2 -31 -5 -22 -10 -24 -16 -20
-51 3 -21 10 -42 15 -45 17 -11 34 -53 25 -60 -12 -8 4 -71 17 -71 6 0 10 -7
10 -16 0 -8 4 -12 10 -9 5 3 18 1 27 -5 16 -9 15 -10 -4 -5 -20 5 -23 3 -21
-19 1 -14 6 -26 11 -26 4 0 6 -4 2 -9 -3 -5 4 -12 14 -16 17 -5 19 -12 15 -47
-4 -28 -3 -38 5 -34 6 4 11 3 11 -3 0 -5 -6 -12 -12 -14 -9 -4 -5 -12 11 -25
15 -12 24 -30 24 -47 0 -31 21 -60 37 -50 6 4 7 -1 3 -12 -6 -16 -5 -16 10 -4
10 8 20 11 23 8 3 -3 -4 -11 -16 -17 -18 -10 -19 -14 -8 -28 11 -13 11 -15 -2
-7 -12 7 -13 6 -3 -7 7 -8 10 -18 6 -21 -3 -4 -2 -7 4 -7 6 0 16 -20 22 -45 7
-28 17 -45 26 -45 8 0 15 -4 15 -10 0 -5 7 -10 15 -10 10 0 15 -11 15 -35 0
-40 38 -94 52 -73 4 8 6 -4 3 -26 -4 -32 -1 -39 15 -43 11 -3 20 -9 20 -14 0
-5 9 -9 19 -9 11 0 23 -4 26 -10 12 -20 21 -9 22 25 1 19 -3 35 -8 35 -4 0 -6
7 -3 15 4 8 10 12 15 9 5 -3 9 -1 9 4 0 6 -7 13 -16 16 -9 3 -14 12 -12 18 3
7 -2 19 -10 27 -13 13 -12 16 4 22 18 7 18 8 0 8 -11 1 -16 6 -13 15 3 8 -3
24 -14 37 -10 12 -19 29 -19 37 0 10 -8 13 -24 10 -23 -5 -24 -4 -9 18 22 35
23 57 0 82 -11 12 -16 22 -12 22 5 0 -1 7 -13 16 -12 8 -22 22 -22 30 0 9 -7
22 -15 30 -8 8 -17 31 -21 52 -4 20 -12 44 -18 52 -7 8 -23 49 -36 90 -38 122
-42 131 -56 126 -8 -3 -14 -1 -14 5 0 6 -7 9 -15 5 -8 -3 -14 -2 -13 2 1 4 -2
18 -6 31 -8 23 -10 23 -21 8 -11 -15 -13 -16 -19 -2 -3 8 -1 15 4 15 6 0 16
15 23 33 15 34 5 87 -15 87 -6 0 -7 11 -4 25 4 14 4 25 1 25 -3 0 -5 -4 -5
-10z m154 -479 c6 -10 -44 -22 -58 -14 -11 7 14 23 36 23 9 0 19 -4 22 -9z"/>
<path d="M9508 3363 c7 -3 16 -2 19 1 4 3 -2 6 -13 5 -11 0 -14 -3 -6 -6z"/>
<path d="M1908 3153 c-10 -2 -18 -10 -18 -17 0 -10 -16 -12 -62 -10 -49 3 -58
1 -39 -6 18 -8 22 -15 17 -33 -3 -12 -6 -35 -7 -52 0 -26 -2 -27 -9 -10 -5 11
-9 33 -9 49 -1 21 -5 27 -17 22 -12 -4 -14 -1 -9 14 5 15 2 20 -14 20 -11 0
-23 -5 -26 -10 -4 -6 -10 -8 -15 -5 -12 7 -23 -50 -15 -76 5 -16 4 -19 -5 -14
-8 5 -11 3 -8 -6 3 -8 15 -13 26 -11 13 2 25 -3 28 -13 9 -22 -3 -30 -21 -15
-9 7 -18 10 -22 7 -3 -4 -12 -2 -20 4 -9 8 -13 8 -13 1 0 -6 4 -13 8 -16 10
-6 9 -36 -1 -53 -4 -7 -1 -15 6 -20 8 -4 19 -17 26 -28 13 -20 10 -8 -6 31 -5
15 -3 15 21 -1 20 -13 29 -15 40 -6 11 9 16 9 22 0 5 -8 3 -9 -6 -4 -10 6 -12
4 -7 -9 4 -10 3 -15 -3 -11 -6 3 -10 1 -10 -4 0 -15 40 -14 40 2 1 7 6 5 14
-5 16 -22 30 -24 22 -3 -3 8 1 18 9 22 18 11 8 66 -11 59 -8 -3 -14 -1 -14 5
0 5 11 14 24 19 17 6 23 14 19 28 -3 15 2 21 21 26 16 4 26 13 26 25 0 18 30
52 30 35 0 -5 5 -1 11 9 12 21 2 40 -17 33 -20 -7 -17 4 4 20 18 14 17 14 -10
7z m-28 -51 c0 -10 -22 -32 -32 -32 -5 0 -3 9 4 20 13 20 28 27 28 12z m-147
-39 c5 -26 4 -26 -9 -9 -7 10 -11 23 -8 27 8 14 11 11 17 -18z m67 -159 c0 -8
-5 -12 -10 -9 -6 4 -8 11 -5 16 9 14 15 11 15 -7z"/>
<path d="M2002 3122 c-7 -2 -12 -8 -12 -13 0 -4 7 -6 16 -2 11 4 15 1 12 -13
-2 -15 2 -18 20 -17 30 4 28 -14 -3 -20 -18 -3 -29 1 -36 14 -5 11 -15 19 -20
19 -15 0 -3 -45 18 -69 22 -26 27 -75 7 -67 -8 3 -14 -1 -14 -9 0 -8 -7 -15
-16 -15 -11 0 -14 6 -9 23 5 14 4 19 -3 12 -19 -19 -24 -65 -7 -71 8 -3 12
-11 8 -17 -3 -6 -1 -7 5 -3 7 4 12 11 12 16 0 14 66 80 79 80 6 0 11 5 11 12
0 6 6 4 13 -7 10 -13 16 -15 21 -6 4 6 2 18 -4 26 -10 12 -10 15 1 15 8 0 25
-13 38 -29 20 -24 26 -27 38 -16 18 19 16 25 -8 25 -19 0 -49 21 -49 34 0 3
10 5 23 3 16 -1 21 3 19 16 -2 10 3 17 13 17 8 0 15 -4 15 -10 0 -5 4 -10 9
-10 5 0 4 11 -2 24 -9 19 -15 22 -29 15 -10 -5 -18 -17 -18 -25 0 -12 -6 -15
-25 -10 -18 5 -24 3 -23 -6 4 -17 -34 -17 -39 0 -3 6 2 12 11 12 23 0 20 17
-5 30 -11 7 -18 17 -15 25 5 13 -29 25 -52 17z"/>
<path d="M4491 3124 c0 -7 -7 -12 -13 -11 -7 0 -24 -1 -38 -2 l-25 -2 25 -21
c17 -15 19 -19 7 -15 -10 4 -30 4 -43 1 -21 -5 -23 -9 -12 -22 11 -13 10 -14
-7 -5 -23 12 -103 14 -110 3 -3 -5 -27 -6 -55 -5 -30 3 -61 -2 -77 -11 -33
-16 -53 -18 -53 -4 0 15 -99 9 -115 -7 -8 -7 -19 -13 -25 -13 -6 0 -8 -5 -4
-11 8 -14 -14 -29 -41 -28 -11 0 -14 3 -7 6 6 2 12 9 12 14 0 12 -47 12 -54 0
-3 -5 -15 -7 -26 -4 -12 3 -29 -2 -40 -12 -10 -9 -23 -14 -28 -11 -6 4 -8 -3
-5 -15 5 -19 3 -20 -18 -14 -21 7 -22 6 -10 -9 11 -13 11 -16 0 -17 -8 -1 -27
-3 -44 -6 -16 -2 -40 -4 -52 -5 -13 0 -23 -4 -23 -9 0 -5 -5 -9 -11 -9 -6 0
-8 9 -4 20 5 15 3 18 -9 14 -9 -3 -16 -10 -16 -14 0 -4 -8 -7 -17 -6 -10 0
-17 -5 -16 -11 2 -9 -9 -13 -32 -13 -29 0 -36 -4 -41 -26 -4 -17 -2 -29 6 -34
7 -4 -10 -7 -38 -7 -47 1 -53 -2 -91 -43 -35 -38 -41 -49 -35 -74 3 -16 17
-39 30 -51 20 -19 33 -21 89 -19 57 3 65 1 63 -14 -2 -13 4 -17 27 -15 16 1
34 8 40 16 11 15 113 67 131 67 17 0 102 39 109 50 3 4 20 12 38 15 57 12 217
67 223 76 3 5 14 9 25 9 10 0 27 4 37 9 29 15 214 39 260 34 23 -3 48 0 55 5
10 8 357 27 480 25 15 0 27 5 27 11 0 6 5 4 10 -4 8 -12 10 -10 10 10 0 19 2
22 10 10 7 -11 11 -9 19 13 13 34 23 34 47 2 24 -31 45 -33 40 -2 -2 14 -9 21
-21 19 -11 -2 -14 1 -9 9 4 7 3 10 -3 6 -6 -4 -16 0 -23 8 -7 8 -19 15 -26 15
-8 0 -14 5 -14 10 0 6 -7 10 -15 10 -8 0 -15 7 -15 15 0 8 -3 14 -7 13 -10 -4
-53 39 -53 50 0 13 -83 8 -87 -5 -5 -13 -24 -5 -71 29 -23 17 -62 14 -62 -6 0
-6 -5 -4 -10 4 -9 13 -10 13 -11 0 -1 -8 -1 -22 0 -30 2 -13 1 -13 -8 0 -5 8
-7 18 -5 22 3 4 -6 8 -20 8 -13 0 -32 3 -42 7 -14 5 -16 3 -11 -12 6 -15 5
-16 -8 -5 -8 7 -24 10 -34 7 -13 -3 -21 1 -24 12 -3 9 -5 11 -6 5z m423 -103
c3 -5 -1 -11 -9 -15 -9 -3 -15 0 -15 9 0 16 16 20 24 6z m-23 -36 c5 4 14 3
20 -1 8 -4 7 -9 -2 -14 -10 -7 -10 -11 1 -24 11 -14 11 -16 -2 -11 -16 6 -39
48 -37 68 1 7 3 4 6 -6 2 -9 9 -15 14 -12z m-71 -6 c0 -5 -4 -9 -10 -9 -5 0
-10 7 -10 16 0 8 5 12 10 9 6 -3 10 -10 10 -16z m147 4 c-4 -3 -2 -12 4 -20 9
-9 8 -13 0 -13 -6 0 -11 2 -11 4 0 2 -3 11 -6 20 -4 10 -1 16 7 16 7 0 9 -3 6
-7z"/>
<path d="M1660 3110 c0 -5 5 -10 10 -10 6 0 10 5 10 10 0 6 -4 10 -10 10 -5 0
-10 -4 -10 -10z"/>
<path d="M2101 3108 c-1 -10 1 -18 3 -18 2 0 11 -3 20 -6 9 -3 16 -1 16 5 0 6
-6 11 -14 11 -8 0 -17 6 -19 13 -3 7 -6 5 -6 -5z"/>
<path d="M2160 3110 c0 -5 5 -10 11 -10 5 0 7 5 4 10 -3 6 -8 10 -11 10 -2 0
-4 -4 -4 -10z"/>
<path d="M2282 3109 c2 -6 7 -10 11 -10 4 1 15 1 25 1 14 0 15 2 2 10 -20 13
-43 13 -38 -1z"/>
<path d="M1570 3086 c0 -7 7 -19 15 -26 13 -11 13 -15 3 -21 -9 -6 -6 -9 9 -9
12 0 25 5 28 10 3 6 1 10 -5 10 -6 0 -15 11 -20 25 -10 27 -30 34 -30 11z"/>
<path d="M1946 3055 c-3 -8 -1 -15 4 -15 6 0 10 7 10 15 0 8 -2 15 -4 15 -2 0
-6 -7 -10 -15z"/>
<path d="M9393 3038 c-1 -12 -10 -28 -19 -35 -16 -12 -16 -13 -2 -13 9 0 19 4
22 9 3 4 19 11 36 14 33 7 40 22 13 30 -10 2 -25 8 -33 11 -11 5 -16 0 -17
-16z"/>
<path d="M1520 3030 c0 -5 5 -10 11 -10 5 0 7 5 4 10 -3 6 -8 10 -11 10 -2 0
-4 -4 -4 -10z"/>
<path d="M2228 3033 c7 -3 16 -2 19 1 4 3 -2 6 -13 5 -11 0 -14 -3 -6 -6z"/>
<path d="M1580 3010 c0 -5 7 -10 16 -10 8 0 12 5 9 10 -3 6 -10 10 -16 10 -5
0 -9 -4 -9 -10z"/>
<path d="M1516 2995 c-19 -14 -19 -15 6 -15 14 0 31 7 38 15 10 12 9 15 -6 15
-11 0 -28 -7 -38 -15z"/>
<path d="M1892 2977 c-9 -10 -7 -19 5 -36 l16 -24 12 24 c21 39 -6 68 -33 36z"/>
<path d="M2295 2980 c3 -5 8 -10 11 -10 2 0 4 5 4 10 0 6 -5 10 -11 10 -5 0
-7 -4 -4 -10z"/>
<path d="M1567 2967 c-3 -7 7 -12 25 -13 20 -1 26 2 19 9 -15 15 -39 17 -44 4z"/>
<path d="M1840 2939 c0 -18 2 -19 15 -9 15 12 12 30 -6 30 -5 0 -9 -10 -9 -21z"/>
<path d="M2035 2929 c-9 -39 1 -50 15 -15 12 34 13 46 1 46 -5 0 -12 -14 -16
-31z"/>
<path d="M2092 2953 c-10 -4 -10 -8 -1 -19 15 -18 33 -18 26 0 -4 9 1 17 11
19 13 4 13 5 -3 5 -11 0 -26 -2 -33 -5z"/>
<path d="M2285 2950 c3 -5 8 -10 11 -10 2 0 4 5 4 10 0 6 -5 10 -11 10 -5 0
-7 -4 -4 -10z"/>
<path d="M3690 2950 c0 -5 5 -10 10 -10 6 0 10 5 10 10 0 6 -4 10 -10 10 -5 0
-10 -4 -10 -10z"/>
<path d="M1330 2920 c0 -5 5 -10 11 -10 5 0 7 5 4 10 -3 6 -8 10 -11 10 -2 0
-4 -4 -4 -10z"/>
<path d="M1553 2923 c-18 -7 -16 -23 2 -23 8 0 15 -6 15 -13 0 -8 9 -24 20
-37 11 -13 20 -19 20 -14 0 14 -34 94 -40 93 -3 0 -11 -3 -17 -6z"/>
<path d="M5100 2926 c0 -2 7 -9 15 -16 9 -7 15 -8 15 -2 0 5 -7 12 -15 16 -8
3 -15 4 -15 2z"/>
<path d="M1710 2835 c0 -8 4 -15 10 -15 5 0 7 7 4 15 -4 8 -8 15 -10 15 -2 0
-4 -7 -4 -15z"/>
<path d="M1760 2830 c6 -11 13 -20 16 -20 2 0 0 9 -6 20 -6 11 -13 20 -16 20
-2 0 0 -9 6 -20z"/>
<path d="M9260 2625 c-11 -13 -10 -14 4 -9 9 3 16 10 16 15 0 13 -6 11 -20 -6z"/>
<path d="M9210 2600 c-8 -5 -12 -12 -9 -15 8 -8 39 5 39 16 0 11 -11 11 -30
-1z"/>
<path d="M9164 2573 c-4 -13 -10 -23 -15 -23 -16 0 -10 -50 7 -57 8 -3 13 -11
10 -18 -7 -19 17 -12 42 11 14 13 20 27 16 38 -3 9 -2 22 4 29 8 9 4 12 -15
14 -14 0 -30 7 -34 15 -7 10 -10 8 -15 -9z"/>
<path d="M1133 2442 c-8 -5 -8 -12 3 -27 12 -16 16 -17 23 -6 9 14 4 41 -8 41
-3 0 -11 -4 -18 -8z"/>
<path d="M1181 2443 c0 -6 -4 -20 -7 -30 -5 -14 -4 -15 5 -7 7 7 11 20 8 30
-3 11 -5 14 -6 7z"/>
<path d="M9150 2440 c0 -5 5 -10 11 -10 5 0 7 5 4 10 -3 6 -8 10 -11 10 -2 0
-4 -4 -4 -10z"/>
<path d="M9123 2413 c9 -2 15 -9 12 -14 -3 -5 1 -6 9 -3 25 9 19 20 -11 21
-16 0 -20 -1 -10 -4z"/>
<path d="M9095 2389 c-4 -6 -5 -12 -2 -15 2 -3 7 2 10 11 7 17 1 20 -8 4z"/>
<path d="M9016 2335 c-3 -8 -23 -22 -45 -31 -21 -8 -53 -30 -70 -49 -16 -18
-40 -37 -53 -41 -13 -3 -34 -20 -47 -35 -13 -16 -29 -29 -36 -29 -6 0 -30 -16
-52 -35 -23 -19 -46 -35 -52 -35 -6 0 -11 -4 -11 -10 0 -5 -5 -10 -11 -10 -12
0 -100 -59 -111 -75 -14 -19 -8 -27 8 -11 8 9 27 19 42 22 15 3 32 7 39 9 7 2
10 -2 7 -9 -3 -8 4 -16 16 -19 11 -3 19 -9 18 -14 -5 -13 5 -15 35 -8 22 6 26
11 22 29 -5 15 -4 17 3 7 7 -10 23 -12 66 -7 33 5 54 12 50 17 -3 6 3 13 15
16 12 3 21 9 21 14 0 5 8 9 18 9 14 0 15 -2 2 -10 -11 -7 -7 -10 19 -10 28 0
31 -2 21 -14 -6 -8 -18 -12 -26 -9 -9 3 -14 -2 -14 -16 0 -12 5 -20 12 -18 6
1 15 -9 19 -23 4 -14 7 -20 8 -15 1 6 11 15 23 20 12 6 24 16 26 24 3 8 0 11
-7 7 -6 -4 -11 0 -12 11 -1 10 -2 25 -3 33 0 8 -11 16 -23 18 -32 5 -47 26
-34 51 6 11 11 29 11 40 0 22 72 97 103 107 10 3 23 18 28 32 8 21 7 29 -8 40
-13 10 -14 13 -3 12 33 -5 50 1 50 16 0 13 -2 13 -17 -2 -17 -16 -18 -16 -21
-1 -4 21 -18 22 -26 2z m4 -56 c0 -10 -4 -19 -9 -19 -10 0 -21 36 -14 44 10
10 23 -5 23 -25z"/>
<path d="M9014 2027 c-3 -9 -1 -24 6 -32 10 -12 9 -15 -8 -15 -22 0 -35 -39
-21 -62 5 -7 9 -10 9 -6 0 4 12 3 26 -2 14 -6 23 -6 20 -1 -4 5 -1 11 4 13 6
2 13 16 16 32 4 26 3 28 -11 16 -13 -11 -15 -9 -15 16 0 16 -4 36 -10 44 -8
12 -10 12 -16 -3z m31 -87 c3 -5 1 -10 -4 -10 -6 0 -11 5 -11 10 0 6 2 10 4
10 3 0 8 -4 11 -10z"/>
<path d="M9070 2020 c0 -6 7 -10 15 -10 8 0 15 2 15 4 0 2 -7 6 -15 10 -8 3
-15 1 -15 -4z"/>
<path d="M9084 1981 c0 -16 4 -18 19 -9 16 8 17 12 6 19 -21 13 -25 11 -25
-10z"/>
<path d="M9096 1941 c-4 -7 -5 -15 -2 -18 9 -9 19 4 14 18 -4 11 -6 11 -12 0z"/>
<path d="M8447 1933 c-4 -3 -7 -11 -7 -17 0 -6 5 -5 12 2 6 6 9 14 7 17 -3 3
-9 2 -12 -2z"/>
<path d="M8386 1905 c-3 -8 -1 -15 4 -15 6 0 10 7 10 15 0 8 -2 15 -4 15 -2 0
-6 -7 -10 -15z"/>
<path d="M9132 1900 c-17 -28 -16 -28 22 -16 27 8 32 14 24 23 -15 19 -31 16
-46 -7z"/>
<path d="M8270 1882 c-14 -9 -28 -21 -31 -25 -4 -5 -10 -4 -13 2 -5 7 -14 6
-30 -5 -13 -8 -37 -17 -52 -20 -64 -10 -76 -15 -70 -29 4 -11 -2 -15 -19 -15
-14 0 -25 -4 -25 -9 0 -5 -20 -19 -44 -30 -54 -27 -90 -57 -77 -65 5 -4 13 -1
17 5 5 8 8 8 14 -1 8 -12 85 21 143 62 15 11 27 16 27 11 0 -4 5 0 11 10 5 9
18 17 28 17 10 0 26 9 35 19 10 11 28 22 42 25 13 4 24 11 24 16 0 6 8 10 18
10 9 0 26 7 36 15 11 8 29 13 40 9 17 -4 18 -3 6 5 -21 15 -51 13 -80 -7z"/>
<path d="M9225 1840 c6 -9 -10 -14 -42 -13 -18 1 -16 -22 2 -37 8 -7 15 -20
15 -29 0 -14 2 -14 10 -1 8 13 10 13 10 -1 0 -9 6 -22 14 -28 12 -10 14 -6 13
27 -1 22 5 47 12 56 16 19 6 36 -20 36 -11 0 -17 -4 -14 -10z"/>
<path d="M6995 1800 c-3 -5 -2 -10 4 -10 5 0 13 5 16 10 3 6 2 10 -4 10 -5 0
-13 -4 -16 -10z"/>
<path d="M6925 1781 c-11 -3 -21 -12 -23 -19 -1 -8 2 -11 8 -7 5 3 10 1 10 -4
0 -17 27 -13 34 6 9 21 -4 32 -29 24z"/>
<path d="M6880 1752 c0 -6 -3 -17 -6 -26 -7 -18 4 -20 25 -7 12 8 12 12 -2 26
-10 9 -17 12 -17 7z"/>
<path d="M9277 1754 c-4 -4 -7 -12 -7 -17 0 -6 3 -7 7 -4 3 4 12 2 19 -4 9 -7
12 -6 10 7 -3 19 -18 28 -29 18z"/>
<path d="M9303 1696 c-8 -10 -9 -16 0 -25 17 -17 22 -14 23 14 2 28 -5 31 -23
11z"/>
<path d="M6374 1675 c4 -14 2 -25 -4 -25 -5 0 -10 -4 -10 -10 0 -5 7 -10 15
-10 8 0 15 -8 15 -17 1 -16 2 -16 15 1 8 11 15 15 15 10 0 -10 39 -14 41 -4 0
3 2 16 5 29 3 17 1 22 -11 18 -8 -4 -18 -1 -21 5 -5 8 -10 5 -15 -8 -6 -16 -8
-16 -8 -2 -1 11 -6 15 -16 12 -8 -4 -15 -2 -15 4 0 6 6 13 13 15 7 3 4 6 -7 6
-15 1 -17 -4 -12 -24z"/>
<path d="M6440 1690 c0 -5 7 -10 15 -10 8 0 15 5 15 10 0 6 -7 10 -15 10 -8 0
-15 -4 -15 -10z"/>
<path d="M6493 1666 c4 -9 3 -16 -1 -16 -13 0 -12 -42 1 -55 10 -10 15 -7 24
11 8 17 8 24 -1 28 -6 2 -2 4 10 3 15 -1 21 -7 20 -22 -1 -15 6 -21 27 -23 21
-3 27 1 27 16 0 11 -6 22 -14 25 -9 4 -12 14 -9 26 3 12 1 21 -6 21 -6 0 -11
-7 -11 -15 0 -8 -7 -15 -16 -15 -9 0 -12 5 -8 13 5 7 2 7 -10 -2 -13 -11 -16
-11 -14 -1 2 7 -3 15 -11 18 -10 3 -12 0 -8 -12z"/>
<path d="M6591 1654 c0 -11 3 -14 6 -6 3 7 2 16 -1 19 -3 4 -6 -2 -5 -13z"/>
<path d="M7482 1523 c-10 -4 -10 -8 0 -21 11 -14 10 -15 -7 -8 -45 17 -63 16
-68 -4 -6 -25 18 -79 26 -58 3 7 6 3 6 -9 1 -26 21 -42 21 -17 0 9 8 23 18 30
15 12 15 15 2 24 -13 9 -7 14 13 11 4 0 7 4 7 10 0 5 5 7 11 4 6 -4 8 -14 5
-22 -3 -8 -1 -11 4 -8 16 10 12 45 -6 45 -10 0 -14 6 -10 15 6 15 1 17 -22 8z
m-25 -65 c2 -17 0 -19 -7 -8 -5 8 -6 18 -4 22 8 12 10 10 11 -14z"/>
<path d="M6743 1451 c-3 -11 -9 -18 -14 -15 -5 3 -9 -2 -9 -10 0 -9 -6 -16
-14 -16 -7 0 -19 -7 -26 -15 -7 -8 -21 -15 -31 -15 -10 0 -22 -6 -26 -14 -4
-7 -26 -15 -48 -18 -50 -7 -69 -12 -75 -18 -36 -36 -55 -43 -120 -46 -39 -2
-88 -8 -109 -13 -21 -4 -54 -7 -75 -6 -58 2 -42 -10 32 -25 82 -17 100 -19
182 -20 65 -1 160 18 160 31 0 3 22 16 48 27 27 12 55 28 62 37 7 8 25 15 41
15 16 0 48 7 71 14 45 16 108 18 108 5 0 -4 10 -6 23 -3 12 2 60 7 107 11 47
3 90 10 97 15 7 5 18 6 24 2 9 -5 10 -2 6 9 -7 20 4 22 21 5 7 -7 12 -8 12 -2
0 20 -46 34 -130 40 -146 10 -166 11 -186 18 -10 3 -35 7 -54 10 -19 2 -43 7
-53 11 -13 6 -20 2 -24 -14z"/>
<path d="M7311 1401 c-11 -7 -5 -11 23 -16 39 -8 52 -3 41 14 -8 13 -45 14
-64 2z"/>
<path d="M6007 1294 c-3 -3 -37 -8 -74 -10 -97 -6 -103 -7 -103 -20 0 -9 15
-11 53 -7 54 7 76 7 139 2 40 -3 58 6 42 20 -13 13 -49 22 -57 15z"/>
<path d="M5620 1265 c0 -14 3 -24 8 -23 4 0 16 -3 26 -7 13 -6 21 -4 24 3 2 7
8 10 13 6 5 -3 15 -2 21 3 13 7 19 8 76 11 21 1 31 6 27 13 -4 6 -13 8 -20 5
-7 -2 -16 -2 -20 2 -11 11 -79 10 -93 -1 -9 -7 -17 -6 -24 1 -20 20 -38 13
-38 -13z"/>
<path d="M6085 1270 c-4 -6 3 -10 14 -10 25 0 27 6 6 13 -8 4 -17 2 -20 -3z"/>
<path d="M5500 1254 c-14 -7 -29 -16 -35 -18 -6 -3 -4 -9 4 -14 10 -7 21 -6
34 3 14 10 27 11 44 4 26 -10 47 -4 38 12 -4 5 -1 9 4 9 6 0 11 4 11 8 0 14
-74 11 -100 -4z"/>
<path d="M5326 1228 c-9 -5 -21 -6 -26 -3 -5 3 -23 -4 -39 -16 -25 -18 -32
-19 -52 -8 -22 11 -23 11 -10 -5 8 -9 10 -16 5 -14 -5 1 -19 -3 -32 -11 -13
-7 -35 -11 -49 -9 -15 2 -28 -2 -30 -8 -4 -12 55 -13 74 -1 9 6 11 3 7 -7 -7
-19 7 -21 24 -4 14 14 52 18 52 6 0 -21 41 -4 79 32 34 33 46 38 70 34 16 -4
32 -1 35 5 4 7 -1 12 -13 13 -61 5 -80 4 -95 -4z"/>
<path d="M5045 1160 c-3 -11 -11 -20 -16 -20 -6 0 -7 -4 -4 -10 3 -5 -4 -11
-17 -11 -16 -1 -18 -3 -6 -6 27 -7 56 14 56 42 0 30 -4 32 -13 5z"/>
<path d="M6680 1161 c0 -19 4 -23 25 -19 14 3 22 1 19 -4 -4 -5 3 -16 15 -24
12 -8 21 -21 21 -28 0 -19 19 -22 148 -25 75 -2 118 1 127 9 8 6 39 12 70 12
40 0 55 4 55 14 0 8 -4 15 -10 15 -5 1 -16 2 -22 3 -7 1 -19 -3 -27 -8 -10 -8
-15 -8 -18 2 -3 8 -26 12 -64 12 -34 0 -73 7 -89 15 -17 9 -30 13 -30 10 0 -3
-10 1 -22 8 -16 10 -49 14 -103 12 -49 -1 -83 2 -87 9 -5 6 -8 1 -8 -13z"/>
<path d="M4777 1130 c-20 -11 -40 -20 -44 -19 -4 0 -9 -4 -11 -10 -2 -5 6 -8
17 -6 11 2 23 0 26 -6 4 -5 -1 -9 -9 -9 -10 0 -16 -9 -16 -21 0 -18 -2 -19
-15 -9 -12 10 -15 10 -15 -4 0 -22 22 -20 43 4 9 11 23 17 32 14 8 -4 15 -1
15 5 0 6 -4 11 -10 11 -5 0 -10 6 -10 14 0 9 12 16 29 18 26 3 28 5 17 20 -12
16 -15 16 -49 -2z"/>
<path d="M9540 1115 c0 -8 6 -15 14 -15 15 0 28 -58 15 -66 -4 -2 -4 -18 1
-34 5 -17 6 -30 2 -30 -4 0 1 -6 10 -13 16 -13 20 -47 5 -58 -4 -3 3 -21 16
-41 17 -24 22 -40 16 -51 -12 -21 -1 -45 24 -53 17 -5 18 -8 5 -15 -32 -18 -5
-56 35 -50 4 0 7 -3 7 -9 0 -5 -6 -10 -12 -11 -7 -1 -2 -5 12 -9 18 -6 20 -8
7 -9 -11 -1 -15 -6 -11 -13 4 -6 3 -8 -2 -5 -6 3 -16 2 -23 -2 -10 -7 -10 -14
3 -40 14 -26 14 -31 2 -31 -9 0 -12 -7 -9 -20 6 -23 23 -27 23 -5 0 8 5 15 10
15 6 0 10 6 10 14 0 8 6 17 13 20 10 5 10 7 0 12 -14 6 -18 25 -5 23 27 -5 34
1 21 18 -10 11 -10 14 -1 9 17 -10 15 4 -4 26 -14 14 -14 20 -4 33 11 13 10
14 -3 9 -12 -4 -15 -1 -12 14 2 13 -3 23 -13 27 -15 6 -15 8 3 23 23 19 30 58
13 68 -7 4 -8 2 -4 -4 5 -8 0 -12 -13 -12 -13 0 -21 7 -21 16 0 10 -6 14 -15
10 -8 -3 -15 -1 -15 3 0 5 -3 17 -6 26 -5 13 -2 16 17 13 13 -2 23 -9 22 -16
-2 -6 5 -12 14 -12 9 0 13 3 10 6 -3 4 -2 15 4 25 6 13 6 19 -1 19 -5 0 -10
12 -9 28 0 15 3 21 6 15 6 -17 30 -16 36 1 4 10 -5 13 -34 11 -32 -2 -37 0
-28 11 9 11 6 14 -19 14 -17 0 -34 5 -37 10 -3 6 -1 10 5 10 6 0 8 5 5 10 -3
6 -2 10 2 10 5 0 9 10 10 22 1 11 8 25 15 29 10 7 9 9 -4 9 -10 0 -18 4 -18 9
0 4 12 6 26 3 19 -3 25 -1 20 7 -4 6 -15 11 -24 11 -23 -1 -54 -25 -44 -35 4
-4 -3 -2 -15 6 -12 7 -19 17 -17 21 3 4 -4 8 -15 8 -12 0 -21 -7 -21 -15z m94
-191 c3 -8 2 -12 -4 -9 -6 3 -10 10 -10 16 0 14 7 11 14 -7z m26 -114 c0 -22
-15 -27 -26 -8 -5 7 -3 8 6 3 10 -6 12 -4 7 8 -3 10 -2 17 3 17 6 0 10 -9 10
-20z"/>
<path d="M4948 1113 c7 -3 16 -2 19 1 4 3 -2 6 -13 5 -11 0 -14 -3 -6 -6z"/>
<path d="M4605 1060 c-4 -6 -10 -8 -15 -5 -4 3 -11 -2 -14 -10 -6 -18 22 -34
33 -18 3 6 13 13 21 16 12 4 11 6 -3 6 -10 1 -15 6 -12 11 3 6 4 10 1 10 -3 0
-8 -5 -11 -10z"/>
<path d="M9149 1048 c-6 -12 -5 -48 2 -48 13 0 20 18 9 25 -6 4 -8 11 -5 16 4
5 4 9 1 9 -3 0 -7 -1 -7 -2z"/>
<path d="M4348 983 c7 -3 16 -2 19 1 4 3 -2 6 -13 5 -11 0 -14 -3 -6 -6z"/>
<path d="M9160 980 c0 -5 5 -10 11 -10 5 0 7 5 4 10 -3 6 -8 10 -11 10 -2 0
-4 -4 -4 -10z"/>
<path d="M7167 966 l-28 -12 26 -14 c14 -7 25 -17 25 -21 0 -4 13 -10 28 -14
16 -3 44 -21 62 -40 19 -19 40 -35 46 -35 7 0 17 -6 21 -13 11 -17 102 -62
110 -54 3 4 12 2 20 -5 10 -8 17 -8 26 1 9 10 8 15 -7 26 -10 8 -23 12 -29 8
-6 -3 -7 -1 -3 6 9 14 -32 74 -45 66 -5 -4 -9 -1 -9 4 0 6 -8 11 -18 11 -10 0
-31 14 -47 30 -16 17 -35 30 -42 30 -7 0 -13 4 -13 10 0 9 -64 31 -85 29 -5 0
-23 -6 -38 -13z"/>
<path d="M8259 939 c-16 -16 -18 -23 -9 -35 7 -7 17 -11 24 -7 6 3 5 0 -2 -8
-11 -11 -14 -12 -21 -1 -14 23 -22 -15 -9 -42 7 -16 8 -42 3 -73 -5 -26 -7
-56 -6 -66 1 -10 -3 -24 -9 -32 -6 -7 -12 -42 -14 -77 -4 -80 -25 -217 -36
-239 -5 -9 -12 -30 -15 -48 -5 -28 -3 -31 19 -31 14 0 27 -4 31 -9 3 -5 16 0
30 12 13 12 36 32 52 45 18 15 23 26 16 30 -8 5 -6 18 7 44 15 32 16 39 4 49
-10 9 -11 15 -3 25 13 16 19 93 8 100 -5 3 -9 14 -9 26 0 18 -2 19 -17 7 -15
-12 -16 -12 -10 4 4 11 1 20 -8 23 -8 4 -12 10 -9 16 3 5 14 2 24 -7 10 -9 23
-14 29 -11 13 8 6 113 -9 130 -6 8 -7 17 -2 20 13 8 1 69 -16 82 -10 7 -13 18
-8 29 4 11 1 22 -6 27 -10 8 -10 11 0 15 6 2 12 9 12 14 0 15 -19 10 -41 -12z"/>
<path d="M9167 904 c-4 -4 -7 -14 -7 -23 0 -11 3 -12 11 -4 6 6 10 16 7 23 -2
6 -7 8 -11 4z"/>
<path d="M3840 829 c0 -16 4 -19 21 -14 12 4 19 3 16 -1 -3 -5 17 -10 44 -12
31 -2 49 1 49 8 0 7 8 9 20 5 11 -3 20 -2 20 3 0 15 -63 21 -79 8 -11 -8 -13
-8 -8 1 5 8 1 11 -13 8 -12 -2 -32 0 -46 5 -21 8 -24 7 -24 -11z"/>
<path d="M3806 831 c-8 -13 -75 -19 -79 -7 -4 12 -37 0 -37 -13 0 -6 10 -15
21 -22 17 -9 24 -8 30 2 8 11 11 11 19 -3 6 -10 17 -15 26 -11 10 4 12 9 4 18
-8 9 -6 14 6 19 9 3 20 4 25 1 5 -4 6 1 3 9 -7 18 -11 20 -18 7z"/>
<path d="M7520 768 c0 -23 22 -58 37 -58 11 0 14 3 7 8 -5 4 -18 18 -27 32 -9
13 -17 21 -17 18z"/>
<path d="M9166 759 c3 -5 1 -9 -4 -9 -12 0 -37 -98 -28 -107 3 -4 6 -1 6 6 0
7 4 10 10 6 12 -7 -21 -74 -36 -75 -6 0 -14 -13 -17 -29 -6 -28 -27 -56 -47
-63 -6 -2 -12 -16 -13 -33 -1 -22 3 -30 18 -33 26 -6 35 -22 28 -49 -11 -45
16 -22 32 27 9 27 22 49 28 47 13 -2 14 17 1 48 -7 17 -6 18 8 7 14 -11 17 -9
23 18 4 17 13 34 20 37 8 2 11 11 9 18 -8 20 -34 27 -50 14 -10 -9 -14 -9 -14
0 0 6 9 19 19 28 11 9 18 20 15 25 -3 4 0 8 5 8 16 0 51 37 43 45 -7 7 -9 13
-11 44 -1 11 -11 20 -26 23 -13 3 -22 1 -19 -3z m24 -19 c0 -5 -5 -10 -11 -10
-5 0 -7 5 -4 10 3 6 8 10 11 10 2 0 4 -4 4 -10z m10 -36 c0 -8 -19 -13 -24 -6
-3 5 1 9 9 9 8 0 15 -2 15 -3z m-78 -252 c-6 -16 -7 -16 -10 1 -2 9 -8 15 -13
12 -5 -3 -6 1 -3 10 5 12 10 13 20 5 7 -7 10 -19 6 -28z m-17 -21 c3 -5 0 -13
-6 -17 -7 -4 -9 -3 -5 4 3 5 0 13 -6 15 -9 4 -10 6 -1 6 6 1 14 -3 18 -8z"/>
<path d="M6880 596 c0 -9 -8 -16 -17 -16 -30 0 0 -18 37 -23 19 -2 27 -2 18 0
-10 2 -18 13 -18 23 0 10 -4 22 -10 25 -5 3 -10 -1 -10 -9z"/>
<path d="M7006 582 c-4 -7 -12 -10 -17 -7 -5 4 -9 2 -9 -4 0 -15 14 -21 29
-11 7 4 11 14 9 21 -3 10 -6 10 -12 1z"/>
<path d="M7590 560 c0 -5 4 -10 10 -10 5 0 7 -7 4 -15 -4 -8 -1 -15 5 -15 6 0
11 5 11 12 0 6 9 3 20 -7 20 -18 21 -18 14 1 -13 33 -64 61 -64 34z"/>
<path d="M6662 535 c3 -28 11 -24 13 5 1 11 -2 20 -7 20 -4 0 -7 -11 -6 -25z"/>
<path d="M6840 541 c0 -14 5 -19 15 -14 17 6 15 25 -3 31 -7 2 -12 -5 -12 -17z"/>
<path d="M7167 543 c-4 -3 -7 -11 -7 -17 0 -6 5 -5 12 2 6 6 9 14 7 17 -3 3
-9 2 -12 -2z"/>
<path d="M7501 393 c0 -13 5 -24 12 -25 6 0 17 -2 22 -3 6 -2 15 -3 21 -4 7 0
15 -8 18 -17 4 -12 2 -15 -9 -11 -8 4 -17 2 -20 -3 -8 -13 56 -41 83 -36 14 3
22 0 22 -10 0 -8 -4 -14 -10 -14 -5 0 -10 -5 -10 -12 0 -6 3 -8 6 -5 4 4 20
-10 36 -31 16 -20 37 -41 46 -46 15 -8 15 -7 4 6 -10 13 -9 16 9 21 15 4 19 2
15 -9 -3 -8 -2 -13 2 -11 4 2 24 11 45 21 39 18 49 36 20 36 -10 0 -25 5 -33
11 -13 9 -12 10 3 5 9 -3 17 -1 17 4 0 6 -7 10 -17 10 -9 0 -14 3 -10 6 9 10
-17 32 -47 40 -25 6 -37 24 -16 24 6 0 5 6 -2 14 -8 9 -15 10 -19 4 -4 -6 -12
-7 -19 -3 -7 4 -31 10 -54 13 -23 2 -43 7 -46 11 -3 3 -15 12 -27 18 -19 11
-21 10 -17 -2 4 -8 1 -15 -4 -15 -6 0 -13 8 -15 18 -4 13 -5 11 -6 -5z m114
-72 c3 -5 1 -12 -5 -16 -5 -3 -10 1 -10 9 0 18 6 21 15 7z"/>
<path d="M9406 314 c-8 -22 -4 -25 11 -9 7 8 9 16 4 19 -5 3 -12 -1 -15 -10z"/>
<path d="M9190 271 c0 -6 -7 -11 -15 -11 -8 0 -15 -8 -15 -17 -1 -16 -1 -17
-10 -2 -8 13 -17 15 -44 9 -44 -10 -56 -18 -57 -38 0 -11 -3 -12 -6 -4 -7 17
-83 -37 -83 -60 0 -9 -9 -19 -19 -23 -11 -3 -23 -15 -26 -27 -8 -23 9 -47 19
-29 4 6 18 11 32 11 13 0 24 5 24 11 0 6 7 9 15 5 14 -5 63 11 75 24 3 3 19
16 37 28 18 13 30 29 27 36 -3 7 2 13 10 13 8 0 12 -6 9 -14 -3 -7 -1 -13 5
-13 6 0 18 -3 26 -6 12 -5 15 -2 10 10 -4 10 -1 16 7 16 8 0 5 6 -7 16 -10 8
-13 13 -6 9 19 -10 14 13 -5 24 -16 9 -15 10 5 11 14 0 22 5 20 12 -5 15 -28
23 -28 9z"/>
<path d="M7860 232 c0 -7 -13 -18 -29 -23 -27 -9 -51 -49 -30 -49 5 0 9 8 10
18 0 13 2 14 6 2 4 -8 13 -20 21 -26 8 -6 12 -16 8 -23 -6 -9 -11 -9 -21 -1
-8 7 -16 7 -19 2 -10 -16 29 -20 49 -6 27 20 35 17 35 -11 0 -28 17 -34 27 -9
3 9 0 20 -8 25 -11 7 -10 10 7 15 19 5 20 9 10 40 -10 30 -18 36 -42 33 -4 0
-11 5 -15 13 -7 10 -9 10 -9 0z m20 -42 c0 -5 -5 -10 -11 -10 -5 0 -7 5 -4 10
3 6 8 10 11 10 2 0 4 -4 4 -10z m20 -32 c0 -4 -9 -8 -21 -8 -11 0 -18 4 -15 8
3 5 12 9 21 9 8 0 15 -4 15 -9z"/>
<path d="M7570 210 c0 -5 5 -10 11 -10 5 0 7 5 4 10 -3 6 -8 10 -11 10 -2 0
-4 -4 -4 -10z"/>
<path d="M7950 159 c0 -11 4 -18 10 -14 5 3 7 12 3 20 -7 21 -13 19 -13 -6z"/>
<path d="M8323 158 c7 -21 -18 -25 -27 -5 -5 9 -7 9 -12 -1 -3 -7 -12 -19 -19
-26 -12 -12 -11 -17 6 -32 19 -17 22 -17 49 -2 24 14 30 14 42 1 13 -12 16
-12 28 2 11 14 11 16 -1 13 -8 -2 -13 3 -11 10 1 8 -2 11 -7 8 -5 -4 -19 6
-32 21 -12 16 -19 20 -16 11z"/>
<path d="M8760 160 c0 -5 10 -10 23 -10 18 0 19 2 7 10 -19 13 -30 13 -30 0z"/>
<path d="M8662 130 c1 -28 3 -30 39 -28 27 1 39 6 42 20 4 14 0 18 -19 18 -13
0 -24 5 -24 10 0 6 -9 10 -19 10 -15 0 -19 -7 -19 -30z"/>
<path d="M8058 95 c-3 -15 -1 -25 6 -25 6 0 12 11 12 25 2 32 -12 32 -18 0z"/>
<path d="M8300 40 c0 -5 5 -10 10 -10 6 0 10 5 10 10 0 6 -4 10 -10 10 -5 0
-10 -4 -10 -10z"/>
</g>
</svg>
